<?xml version="1.0" encoding="UTF-8" standalone="no"?>
<!-- Created with Inkscape (http://www.inkscape.org/) -->

<svg
   width="4.9000001in"
   height="2.5190001in"
   viewBox="0 0 124.45999 63.982601"
   version="1.1"
   id="svg1"
   inkscape:version="1.3.2 (091e20e, 2023-11-25)"
   sodipodi:docname="pairwise-vs-oif-bindings.svg"
   xmlns:inkscape="http://www.inkscape.org/namespaces/inkscape"
   xmlns:sodipodi="http://sodipodi.sourceforge.net/DTD/sodipodi-0.dtd"
   xmlns="http://www.w3.org/2000/svg"
   xmlns:svg="http://www.w3.org/2000/svg">
  <sodipodi:namedview
     id="namedview1"
     pagecolor="#ffffff"
     bordercolor="#000000"
     borderopacity="0.25"
     inkscape:showpageshadow="2"
     inkscape:pageopacity="0.0"
     inkscape:pagecheckerboard="0"
     inkscape:deskcolor="#d1d1d1"
     inkscape:document-units="mm"
     inkscape:zoom="2.0392629"
     inkscape:cx="249.59999"
     inkscape:cy="121.1222"
     inkscape:window-width="1920"
     inkscape:window-height="1008"
     inkscape:window-x="0"
     inkscape:window-y="35"
     inkscape:window-maximized="1"
     inkscape:current-layer="layer1" />
  <defs
     id="defs1" />
  <g
     inkscape:label="Layer 1"
     inkscape:groupmode="layer"
     id="layer1">
    <path
       id="path1"
       d="M 13.632901,30.387467 H 4.4948195 c -0.388225,0 -0.702931,0.314706 -0.702931,0.702927 v 2.889554 c 0,0.388221 0.314706,0.702927 0.702931,0.702927 h 9.1380815 c 0.388218,0 0.702928,-0.314706 0.702928,-0.702927 v -2.889554 c 0,-0.388221 -0.31471,-0.702927 -0.702928,-0.702927 z"
       style="fill:#d0662b;fill-opacity:1;fill-rule:nonzero;stroke:#000000;stroke-width:0.281167;stroke-linecap:butt;stroke-linejoin:miter;stroke-miterlimit:10;stroke-dasharray:none;stroke-opacity:1" />
    <path
       id="path2"
       d="m 6.8351835,33.168596 c -0.198438,0.11989 -0.285254,0.173633 -0.566374,0.173633 -0.438216,0 -0.7028,-0.405143 -0.7028,-0.810286 0,-0.417546 0.289388,-0.806152 0.7028,-0.806152 0.181901,0 0.376204,0.05788 0.504362,0.157096 l 0.04547,-0.256315 c -0.198437,-0.07441 -0.355534,-0.09509 -0.558105,-0.09509 -0.558106,0 -0.975651,0.458887 -0.975651,1.000456 0,0.578776 0.44235,1.008724 0.992187,1.008724 0.272852,0 0.388607,-0.05788 0.574642,-0.157097 z m 2.4690981,-0.905371 h -0.243912 v 0.814421 c 0,0.227376 -0.1901697,0.297656 -0.3555337,0.297656 -0.206706,0 -0.227377,-0.05788 -0.227377,-0.186035 V 32.263225 H 8.2294132 v 0.942578 c 0,0.248047 0.111621,0.334864 0.3100577,0.334864 0.111621,0 0.359668,-0.02481 0.5291667,-0.157097 v 0.128158 h 0.235644 z m 1.2619384,0.04548 c -0.190169,-0.07855 -0.33073,-0.08682 -0.434082,-0.08682 -0.07028,0 -0.4919597,0 -0.4919597,0.372071 0,0.132291 0.07028,0.206705 0.107487,0.239778 0.09922,0.09922 0.219108,0.11989 0.3679357,0.148828 0.132292,0.02481 0.28112,0.05374 0.28112,0.19017 0,0.177766 -0.23151,0.177766 -0.272852,0.177766 -0.1777657,0 -0.3472647,-0.06614 -0.4588857,-0.144694 l -0.04134,0.21084 c 0.09922,0.04548 0.268717,0.124024 0.5002267,0.124024 0.128158,0 0.252182,-0.02067 0.355534,-0.09508 0.103353,-0.07855 0.136426,-0.202572 0.136426,-0.297656 0,-0.05374 -0.0041,-0.161231 -0.119889,-0.268718 -0.107487,-0.09095 -0.206706,-0.111621 -0.343132,-0.136425 -0.1653637,-0.03307 -0.2935217,-0.05788 -0.2935217,-0.181901 0,-0.161231 0.2025717,-0.161231 0.2480467,-0.161231 0.157097,0 0.28112,0.03721 0.42168,0.107487 z m 1.32705,0.897102 c -0.157096,0.111622 -0.334863,0.148829 -0.454752,0.148829 -0.243913,0 -0.429948,-0.198438 -0.438216,-0.458887 h 0.921907 c 0,-0.128158 -0.0124,-0.318327 -0.124023,-0.479557 -0.09922,-0.14056 -0.268718,-0.194304 -0.405143,-0.194304 -0.343132,0 -0.607715,0.301791 -0.607715,0.657324 0,0.359668 0.28112,0.661459 0.65319,0.661459 0.16123,0 0.330729,-0.04961 0.471289,-0.136426 z M 11.020972,32.72625 c 0.06615,-0.223242 0.231511,-0.318327 0.372071,-0.318327 0.124023,0 0.305924,0.05788 0.359668,0.318327 z m 1.467611,0.186035 c 0,-0.30179 0.252181,-0.467155 0.500228,-0.467155 v -0.210839 c -0.235645,0.0041 -0.409277,0.119889 -0.520899,0.268717 v -0.260449 h -0.214974 v 1.269173 h 0.235645 z m 0,0"
       style="fill:#ffffff;fill-opacity:1;fill-rule:nonzero;stroke:none;stroke-width:0.352778"
       aria-label="Cuser" />
    <path
       id="path3"
       d="M 17.019617,15.264026 H 1.1080968 c -0.38822497,0 -0.70293094,0.314706 -0.70293094,0.702927 v 3.436288 c 0,0.388225 0.31470597,0.702931 0.70293094,0.702931 H 17.019617 c 0.388225,0 0.702927,-0.314706 0.702927,-0.702931 v -3.436288 c 0,-0.388221 -0.314702,-0.702927 -0.702927,-0.702927 z"
       style="fill:#d0662b;fill-opacity:1;fill-rule:nonzero;stroke:#000000;stroke-width:0.281167;stroke-linecap:butt;stroke-linejoin:miter;stroke-miterlimit:10;stroke-dasharray:none;stroke-opacity:1" />
    <path
       id="path4"
       d="m 2.6307885,17.586085 c 0.363803,0 0.686263,-0.256315 0.686263,-0.578776 0,-0.301791 -0.297656,-0.570508 -0.706933,-0.570508 H 1.8535758 v 1.951302 h 0.28112 v -0.802018 z m -0.09095,-0.98392 c 0.3183267,0 0.5208977,0.169499 0.5208977,0.405144 0,0.23151 -0.190169,0.405143 -0.5208977,0.405143 H 2.1264278 v -0.810287 z m 2.276863,0.537435 h -0.227376 c -0.227376,0.537435 -0.384472,0.901237 -0.396875,1.070736 -0.0041,-0.07855 -0.05374,-0.219108 -0.103353,-0.3514 -0.04548,-0.111621 -0.09095,-0.223242 -0.14056,-0.334863 L 3.7707715,17.1396 h -0.243913 l 0.58291,1.248503 c -0.03307,0.08268 -0.09095,0.21084 -0.107487,0.248047 -0.05788,0.115755 -0.09922,0.157096 -0.173633,0.157096 -0.0124,0 -0.115755,0 -0.235644,-0.04961 l 0.01654,0.194303 c 0.02481,0.0083 0.128158,0.02481 0.214974,0.02481 0.111621,0 0.214974,-0.04134 0.334863,-0.314193 z m 0.574642,0.177767 h 0.413412 V 17.1396 H 5.3913435 V 16.784066 H 5.1722355 V 17.1396 h -0.252181 v 0.177767 h 0.243913 v 0.711068 c 0,0.190169 0.04961,0.388607 0.252181,0.388607 0.202572,0 0.355534,-0.06615 0.44235,-0.103353 l -0.04961,-0.181901 c -0.09095,0.06615 -0.190169,0.09095 -0.268718,0.09095 -0.119889,0 -0.148828,-0.115755 -0.148828,-0.243913 z m 1.856218,0.239779 c 0,-0.219108 -0.06201,-0.446485 -0.409277,-0.446485 -0.243913,0 -0.372071,0.14056 -0.425815,0.202572 v -0.876432 h -0.239778 v 1.951302 h 0.248047 v -0.682129 c 0,-0.186035 0.07855,-0.409277 0.293522,-0.409277 0.289388,0 0.289388,0.198437 0.289388,0.276985 v 0.814421 h 0.243913 z m 1.6412424,0.214974 c 0,-0.372071 -0.293522,-0.673861 -0.6614577,-0.673861 -0.3638017,0 -0.6614577,0.305925 -0.6614577,0.673861 0,0.355534 0.297656,0.644922 0.6614577,0.644922 0.3679357,0 0.6614577,-0.289388 0.6614577,-0.644922 z m -0.6614577,0.450618 c -0.223242,0 -0.4134107,-0.165364 -0.4134107,-0.479557 0,-0.318327 0.2067047,-0.458887 0.4134107,-0.458887 0.2108397,0 0.4175447,0.144694 0.4175447,0.458887 0,0.318327 -0.198437,0.479557 -0.4175447,0.479557 z m 2.0567208,-0.665592 c 0,-0.219108 -0.06201,-0.446485 -0.4092777,-0.446485 -0.16123,0 -0.314192,0.06615 -0.4382157,0.214974 V 17.11893 h -0.227376 v 1.269173 h 0.248047 v -0.682129 c 0,-0.186035 0.07855,-0.409277 0.2935217,-0.409277 0.2893877,0 0.2893877,0.198437 0.2893877,0.276985 v 0.814421 h 0.243913 z M 12.821379,17.1396 h -0.243912 v 0.814421 c 0,0.227376 -0.19017,0.297656 -0.355534,0.297656 -0.206706,0 -0.227377,-0.05788 -0.227377,-0.186035 V 17.1396 H 11.74651 v 0.942578 c 0,0.248047 0.111621,0.334864 0.310058,0.334864 0.111621,0 0.359668,-0.0248 0.529167,-0.157097 v 0.128158 h 0.235644 z m 1.261939,0.04548 c -0.19017,-0.07855 -0.330729,-0.08682 -0.434082,-0.08682 -0.07028,0 -0.49196,0 -0.49196,0.37207 0,0.132292 0.07028,0.206706 0.107487,0.239779 0.09922,0.09922 0.219108,0.119889 0.367936,0.148828 0.132292,0.02481 0.28112,0.05374 0.28112,0.190169 0,0.177767 -0.23151,0.177767 -0.272851,0.177767 -0.177767,0 -0.347266,-0.06614 -0.458887,-0.144694 l -0.04134,0.21084 c 0.09922,0.04547 0.268716,0.124024 0.500227,0.124024 0.128157,0 0.25218,-0.02067 0.355533,-0.09508 0.103353,-0.07855 0.136426,-0.202572 0.136426,-0.297656 0,-0.05374 -0.0041,-0.161231 -0.119889,-0.268718 -0.107487,-0.09095 -0.206706,-0.111621 -0.343132,-0.136425 -0.165364,-0.03307 -0.293522,-0.05788 -0.293522,-0.181902 0,-0.16123 0.202572,-0.16123 0.248047,-0.16123 0.157096,0 0.28112,0.03721 0.42168,0.107487 z m 1.327051,0.897102 c -0.157097,0.111621 -0.334864,0.148828 -0.454753,0.148828 -0.243913,0 -0.429948,-0.198437 -0.438216,-0.458886 h 0.921907 c 0,-0.128158 -0.0124,-0.318327 -0.124023,-0.479557 -0.09922,-0.14056 -0.268717,-0.194304 -0.405143,-0.194304 -0.343132,0 -0.607715,0.30179 -0.607715,0.657324 0,0.359668 0.28112,0.661459 0.65319,0.661459 0.16123,0 0.330729,-0.04961 0.471289,-0.136426 z M 14.53807,17.602625 c 0.06615,-0.223242 0.231511,-0.318327 0.372071,-0.318327 0.124023,0 0.305924,0.05788 0.359668,0.318327 z m 1.467611,0.186035 c 0,-0.30179 0.252181,-0.467155 0.500228,-0.467155 v -0.21084 c -0.235645,0.0041 -0.409278,0.11989 -0.520899,0.268718 V 17.11893 h -0.214973 v 1.269173 h 0.235644 z m 0,0"
       style="fill:#ffffff;fill-opacity:1;fill-rule:nonzero;stroke:none;stroke-width:0.352778"
       aria-label="Pythonuser" />
    <path
       id="path5"
       d="M 15.45509,44.96417 H 2.6726265 c -0.3882237,0 -0.7029267,0.314706 -0.7029267,0.702931 v 2.88956 c 0,0.388222 0.314703,0.702927 0.7029267,0.702927 H 15.45509 c 0.388221,0 0.702931,-0.314705 0.702931,-0.702927 v -2.88956 c 0,-0.388225 -0.31471,-0.702931 -0.702931,-0.702931 z"
       style="fill:#d0662b;fill-opacity:1;fill-rule:nonzero;stroke:#000000;stroke-width:0.281167;stroke-linecap:butt;stroke-linejoin:miter;stroke-miterlimit:10;stroke-dasharray:none;stroke-opacity:1" />
    <path
       id="path6"
       d="m 4.3030375,46.13628 h -0.276985 v 1.521354 c 0,0.05788 0,0.30179 -0.343132,0.30179 -0.198437,0 -0.318327,-0.103353 -0.376204,-0.16123 l -0.04134,0.23151 c 0.152962,0.07028 0.338997,0.115755 0.51263,0.115755 0.297656,0 0.525032,-0.148828 0.525032,-0.475423 z m 1.555461,0.702799 H 5.6145855 V 47.6535 c 0,0.227376 -0.190169,0.297656 -0.355534,0.297656 -0.206705,0 -0.227376,-0.05788 -0.227376,-0.186035 v -0.926042 h -0.248047 v 0.942578 c 0,0.248047 0.111621,0.334863 0.310059,0.334863 0.111621,0 0.359668,-0.0248 0.529166,-0.157096 v 0.128158 h 0.235645 z m 0.707967,-0.702799 h -0.235645 v 1.951302 h 0.235645 z m 0.736906,0.0248 h -0.285254 v 0.28112 h 0.285254 z m -0.0248,0.677995 h -0.235644 v 1.248502 h 0.235644 z m 1.4407384,0.438216 c 0,-0.285254 -0.219108,-0.479557 -0.5002277,-0.479557 -0.177767,0 -0.310058,0.03721 -0.4671547,0.119889 l 0.01653,0.206706 c 0.09095,-0.06201 0.2315097,-0.148828 0.4506177,-0.148828 0.124024,0 0.2563157,0.09508 0.2563157,0.305924 v 0.111621 c -0.4175457,0.0124 -0.8268224,0.103353 -0.8268224,0.363802 0,0.14056 0.09508,0.359668 0.3431307,0.359668 0.11989,0 0.343132,-0.0248 0.4919597,-0.136426 v 0.107487 h 0.235644 z m -0.243912,0.409277 c 0,0.05788 0,0.132292 -0.09922,0.19017 -0.09095,0.04961 -0.202572,0.05374 -0.231511,0.05374 -0.152962,0 -0.2728507,-0.07028 -0.2728507,-0.177767 0,-0.177767 0.4754227,-0.198437 0.6035804,-0.202571 z m 2.7812241,-0.847493 h -0.243914 v 0.81442 c 0,0.227377 -0.190169,0.297657 -0.355534,0.297657 -0.206706,0 -0.227376,-0.05788 -0.227376,-0.186035 v -0.926038 h -0.248051 v 0.942578 c 0,0.248047 0.111621,0.334863 0.310059,0.334863 0.111621,0 0.359668,-0.0248 0.529166,-0.157096 v 0.128158 h 0.235645 z m 1.261938,0.04548 c -0.190169,-0.07855 -0.330729,-0.08682 -0.434082,-0.08682 -0.07028,0 -0.491959,0 -0.491959,0.37207 0,0.132292 0.07028,0.206706 0.107486,0.239779 0.09922,0.09922 0.219109,0.119889 0.367937,0.148828 0.132291,0.0248 0.281119,0.05374 0.281119,0.190169 0,0.177767 -0.23151,0.177767 -0.272851,0.177767 -0.177767,0 -0.347266,-0.06615 -0.458887,-0.144694 l -0.04134,0.21084 c 0.09922,0.04548 0.268718,0.124023 0.500228,0.124023 0.128157,0 0.252181,-0.02067 0.355534,-0.09508 0.103353,-0.07855 0.136426,-0.202572 0.136426,-0.297656 0,-0.05374 -0.0041,-0.161231 -0.11989,-0.268718 -0.107487,-0.09095 -0.206705,-0.111621 -0.343131,-0.136426 -0.165365,-0.03307 -0.293522,-0.05788 -0.293522,-0.181901 0,-0.16123 0.202571,-0.16123 0.248047,-0.16123 0.157096,0 0.281119,0.03721 0.421679,0.107487 z m 1.327051,0.897103 c -0.157097,0.111621 -0.334863,0.148828 -0.454753,0.148828 -0.243912,0 -0.429948,-0.198437 -0.438216,-0.458887 h 0.921908 c 0,-0.128157 -0.0124,-0.318326 -0.124024,-0.479557 -0.09922,-0.14056 -0.268717,-0.194303 -0.405143,-0.194303 -0.343131,0 -0.607715,0.30179 -0.607715,0.657324 0,0.359668 0.28112,0.661458 0.65319,0.661458 0.161231,0 0.330729,-0.04961 0.471289,-0.136426 z M 12.973308,47.3021 c 0.06614,-0.223242 0.23151,-0.318327 0.37207,-0.318327 0.124023,0 0.305924,0.05788 0.359668,0.318327 z m 1.46761,0.186035 c 0,-0.30179 0.252181,-0.467155 0.500228,-0.467155 v -0.21084 c -0.235644,0.0041 -0.409277,0.11989 -0.520898,0.268718 v -0.260449 h -0.214974 v 1.269173 h 0.235644 z m 0,0"
       style="fill:#ffffff;fill-opacity:1;fill-rule:nonzero;stroke:none;stroke-width:0.352778"
       aria-label="Juliauser" />
    <path
       id="path7"
       d="M 53.475745,30.387467 H 38.652807 c -0.388225,0 -0.702928,0.314706 -0.702928,0.702927 v 2.889554 c 0,0.388221 0.314703,0.702927 0.702928,0.702927 h 14.822938 c 0.388225,0 0.702927,-0.314706 0.702927,-0.702927 v -2.889554 c 0,-0.388221 -0.314702,-0.702927 -0.702927,-0.702927 z"
       style="fill:#005eaa;fill-opacity:1;fill-rule:nonzero;stroke:#000000;stroke-width:0.281167;stroke-linecap:butt;stroke-linejoin:miter;stroke-miterlimit:10;stroke-dasharray:1.05439, 1.05439;stroke-dashoffset:0;stroke-opacity:1" />
    <path
       id="path8"
       d="m 40.28327,31.560426 h -0.276986 v 1.521354 c 0,0.05788 0,0.30179 -0.343132,0.30179 -0.198437,0 -0.318326,-0.103352 -0.376204,-0.16123 l -0.04134,0.23151 c 0.152962,0.07028 0.338997,0.115756 0.51263,0.115756 0.297656,0 0.525033,-0.148829 0.525033,-0.475424 z m 1.55546,0.702799 h -0.243913 v 0.814421 c 0,0.227376 -0.190169,0.297656 -0.355534,0.297656 -0.206705,0 -0.227376,-0.05788 -0.227376,-0.186035 V 32.263225 H 40.76386 v 0.942578 c 0,0.248047 0.111621,0.334864 0.310059,0.334864 0.111621,0 0.359668,-0.02481 0.529167,-0.157097 v 0.128158 h 0.235644 z m 0.706934,-0.702799 h -0.235645 v 1.951302 h 0.235645 z m 0.737939,0.0248 h -0.285254 v 0.28112 h 0.285254 z m -0.0248,0.677995 h -0.235644 v 1.248503 h 0.235644 z m 1.439706,0.438216 c 0,-0.285254 -0.219108,-0.479557 -0.500228,-0.479557 -0.177767,0 -0.310059,0.03721 -0.467155,0.119889 l 0.01654,0.206706 c 0.09095,-0.06201 0.23151,-0.148828 0.450618,-0.148828 0.124024,0 0.256315,0.09509 0.256315,0.305924 v 0.111622 c -0.417545,0.0124 -0.826823,0.103352 -0.826823,0.363802 0,0.140559 0.09508,0.359668 0.343132,0.359668 0.119889,0 0.343131,-0.02481 0.491959,-0.136426 v 0.107487 h 0.235645 z m -0.243913,0.409278 c 0,0.05788 0,0.132291 -0.09922,0.190169 -0.09095,0.04961 -0.202571,0.05374 -0.23151,0.05374 -0.152962,0 -0.272852,-0.07028 -0.272852,-0.177767 0,-0.177766 0.475423,-0.198437 0.603581,-0.202571 z M 46.955731,32.3087 c -0.190169,-0.07855 -0.330729,-0.08682 -0.434082,-0.08682 -0.07028,0 -0.49196,0 -0.49196,0.37207 0,0.132292 0.07028,0.206706 0.107488,0.239779 0.09922,0.09922 0.219108,0.119889 0.367936,0.148828 0.132291,0.02481 0.28112,0.05374 0.28112,0.190169 0,0.177767 -0.231511,0.177767 -0.272852,0.177767 -0.177767,0 -0.347266,-0.06615 -0.458887,-0.144694 l -0.04134,0.21084 c 0.09922,0.04547 0.268717,0.124024 0.500228,0.124024 0.128157,0 0.252181,-0.02067 0.355534,-0.09508 0.103352,-0.07855 0.136425,-0.202572 0.136425,-0.297656 0,-0.05374 -0.0041,-0.161231 -0.119889,-0.268718 -0.107487,-0.09095 -0.206706,-0.111621 -0.343131,-0.136426 -0.165365,-0.03307 -0.293522,-0.05788 -0.293522,-0.181901 0,-0.16123 0.202571,-0.16123 0.248046,-0.16123 0.157097,0 0.28112,0.03721 0.42168,0.107487 z m 1.525488,0.587045 c 0,-0.372071 -0.293522,-0.673861 -0.661458,-0.673861 -0.363802,0 -0.661458,0.305925 -0.661458,0.673861 0,0.355534 0.297656,0.644922 0.661458,0.644922 0.367936,0 0.661458,-0.289388 0.661458,-0.644922 z m -0.661458,0.450618 c -0.223242,0 -0.413411,-0.165364 -0.413411,-0.479557 0,-0.318327 0.206705,-0.458887 0.413411,-0.458887 0.21084,0 0.417546,0.144694 0.417546,0.458887 0,0.318327 -0.198438,0.479557 -0.417546,0.479557 z m 1.220597,-1.785937 h -0.235644 v 1.951302 h 0.235644 z m 1.573031,0.702799 h -0.223243 c -0.384473,0.942578 -0.40101,1.016993 -0.413412,1.083138 h -0.0041 c -0.02067,-0.111621 -0.09922,-0.305924 -0.186035,-0.525032 l -0.227376,-0.558106 h -0.235645 l 0.516764,1.248503 h 0.26045 z m 1.252636,0.942578 c -0.157097,0.111622 -0.334864,0.148829 -0.454753,0.148829 -0.243913,0 -0.429948,-0.198438 -0.438216,-0.458887 h 0.921907 c 0,-0.128158 -0.0124,-0.318327 -0.124023,-0.479557 -0.09922,-0.14056 -0.268717,-0.194304 -0.405143,-0.194304 -0.343132,0 -0.607715,0.301791 -0.607715,0.657324 0,0.359668 0.28112,0.661459 0.65319,0.661459 0.161231,0 0.330729,-0.04961 0.471289,-0.136426 z m -0.872298,-0.479557 c 0.06614,-0.223242 0.23151,-0.318327 0.37207,-0.318327 0.124023,0 0.305924,0.05788 0.359668,0.318327 z m 1.468643,0.186035 c 0,-0.30179 0.252181,-0.467155 0.500228,-0.467155 v -0.210839 c -0.235644,0.0041 -0.409277,0.119889 -0.520898,0.268717 v -0.260449 h -0.214974 v 1.269173 h 0.235644 z m 0,0"
       style="fill:#ffffff;fill-opacity:1;fill-rule:nonzero;stroke:none;stroke-width:0.352778"
       aria-label="Juliasolver" />
    <path
       id="path9"
       d="M 56.285062,15.264026 H 35.843489 c -0.388221,0 -0.702931,0.314706 -0.702931,0.702927 v 3.436288 c 0,0.388225 0.31471,0.702931 0.702931,0.702931 h 20.441573 c 0.388222,0 0.702931,-0.314706 0.702931,-0.702931 v -3.436288 c 0,-0.388221 -0.314709,-0.702927 -0.702931,-0.702927 z"
       style="fill:#005eaa;fill-opacity:1;fill-rule:nonzero;stroke:#000000;stroke-width:0.281167;stroke-linecap:butt;stroke-linejoin:miter;stroke-miterlimit:10;stroke-dasharray:1.05439, 1.05439;stroke-dashoffset:0;stroke-opacity:1" />
    <path
       id="path10"
       d="m 37.365617,17.586085 c 0.363802,0 0.686263,-0.256315 0.686263,-0.578776 0,-0.301791 -0.297656,-0.570508 -0.706933,-0.570508 h -0.756543 v 1.951302 h 0.28112 v -0.802018 z m -0.09095,-0.98392 c 0.318327,0 0.520898,0.169499 0.520898,0.405144 0,0.23151 -0.190169,0.405143 -0.520898,0.405143 H 36.861255 V 16.602165 Z M 39.55153,17.1396 h -0.227376 c -0.227376,0.537435 -0.384473,0.901237 -0.396875,1.070736 -0.0041,-0.07855 -0.05374,-0.219108 -0.103353,-0.3514 -0.04547,-0.111621 -0.09095,-0.223242 -0.14056,-0.334863 L 38.505599,17.1396 h -0.243912 l 0.58291,1.248503 c -0.03307,0.08268 -0.09095,0.21084 -0.107487,0.248047 -0.05788,0.115755 -0.09922,0.157096 -0.173633,0.157096 -0.0124,0 -0.115755,0 -0.235644,-0.04961 l 0.01654,0.194303 c 0.0248,0.0083 0.128158,0.02481 0.214974,0.02481 0.111621,0 0.214974,-0.04134 0.334863,-0.314193 z m 0.574642,0.177767 h 0.413412 V 17.1396 H 40.126172 V 16.784066 H 39.907064 V 17.1396 h -0.252181 v 0.177767 h 0.243913 v 0.711068 c 0,0.190169 0.04961,0.388607 0.252181,0.388607 0.202572,0 0.355534,-0.06615 0.44235,-0.103353 l -0.04961,-0.181901 c -0.09095,0.06615 -0.190169,0.09095 -0.268718,0.09095 -0.119889,0 -0.148828,-0.115755 -0.148828,-0.243913 z m 1.856218,0.239779 c 0,-0.219108 -0.06201,-0.446485 -0.409278,-0.446485 -0.243912,0 -0.37207,0.14056 -0.425813,0.202572 V 16.436801 H 40.90752 v 1.951302 h 0.248047 v -0.682129 c 0,-0.186035 0.07855,-0.409277 0.293522,-0.409277 0.289388,0 0.289388,0.198437 0.289388,0.276985 v 0.814421 h 0.243913 z m 1.641243,0.214974 c 0,-0.372071 -0.293522,-0.673861 -0.661458,-0.673861 -0.363802,0 -0.661459,0.305925 -0.661459,0.673861 0,0.355534 0.297657,0.644922 0.661459,0.644922 0.367936,0 0.661458,-0.289388 0.661458,-0.644922 z m -0.661458,0.450618 c -0.223243,0 -0.413412,-0.165364 -0.413412,-0.479557 0,-0.318327 0.206706,-0.458887 0.413412,-0.458887 0.210839,0 0.417545,0.144694 0.417545,0.458887 0,0.318327 -0.198437,0.479557 -0.417545,0.479557 z m 2.056722,-0.665592 c 0,-0.219108 -0.06201,-0.446485 -0.409278,-0.446485 -0.16123,0 -0.314192,0.06615 -0.438216,0.214974 V 17.11893 h -0.227376 v 1.269173 h 0.248047 v -0.682129 c 0,-0.186035 0.07855,-0.409277 0.293522,-0.409277 0.289388,0 0.289388,0.198437 0.289388,0.276985 v 0.814421 h 0.243913 z m 2.256193,-0.37207 c -0.19017,-0.07855 -0.33073,-0.08682 -0.434083,-0.08682 -0.07028,0 -0.491959,0 -0.491959,0.37207 0,0.132292 0.07028,0.206706 0.107487,0.239779 0.09922,0.09922 0.219108,0.119889 0.367936,0.148828 0.132292,0.02481 0.28112,0.05374 0.28112,0.190169 0,0.177767 -0.231511,0.177767 -0.272852,0.177767 -0.177767,0 -0.347265,-0.06614 -0.458887,-0.144694 l -0.04134,0.21084 c 0.09922,0.04547 0.268717,0.124024 0.500227,0.124024 0.128158,0 0.252181,-0.02067 0.355534,-0.09508 0.103353,-0.07855 0.136426,-0.202572 0.136426,-0.297656 0,-0.05374 -0.0041,-0.161231 -0.119889,-0.268718 -0.107487,-0.09095 -0.206706,-0.111621 -0.343132,-0.136425 -0.165364,-0.03307 -0.293522,-0.05788 -0.293522,-0.181902 0,-0.16123 0.202571,-0.16123 0.248047,-0.16123 0.157096,0 0.28112,0.03721 0.421679,0.107487 z m 1.525488,0.587044 c 0,-0.372071 -0.293523,-0.673861 -0.661458,-0.673861 -0.363802,0 -0.661459,0.305925 -0.661459,0.673861 0,0.355534 0.297657,0.644922 0.661459,0.644922 0.367935,0 0.661458,-0.289388 0.661458,-0.644922 z m -0.661458,0.450618 c -0.223243,0 -0.413412,-0.165364 -0.413412,-0.479557 0,-0.318327 0.206706,-0.458887 0.413412,-0.458887 0.210839,0 0.417545,0.144694 0.417545,0.458887 0,0.318327 -0.198438,0.479557 -0.417545,0.479557 z m 1.22163,-1.785937 h -0.235644 v 1.951302 h 0.235644 z m 1.571997,0.702799 h -0.223242 c -0.384472,0.942578 -0.401009,1.016992 -0.413412,1.083138 h -0.0041 c -0.02067,-0.111621 -0.09922,-0.305924 -0.186035,-0.525032 L 49.878548,17.1396 h -0.235644 l 0.516764,1.248503 h 0.260449 z m 1.252637,0.942578 c -0.157096,0.111621 -0.334864,0.148828 -0.454753,0.148828 -0.243913,0 -0.429947,-0.198437 -0.438216,-0.458886 h 0.921908 c 0,-0.128158 -0.0124,-0.318327 -0.124024,-0.479557 -0.09922,-0.14056 -0.268717,-0.194304 -0.405143,-0.194304 -0.343132,0 -0.607715,0.30179 -0.607715,0.657324 0,0.359668 0.28112,0.661459 0.65319,0.661459 0.161231,0 0.33073,-0.04961 0.471289,-0.136426 z m -0.872298,-0.479557 c 0.06615,-0.223242 0.23151,-0.318327 0.37207,-0.318327 0.124024,0 0.305925,0.05788 0.359668,0.318327 z m 1.468644,0.186035 c 0,-0.30179 0.252181,-0.467155 0.500228,-0.467155 v -0.21084 c -0.235645,0.0041 -0.409278,0.11989 -0.520899,0.268718 V 17.11893 h -0.214974 v 1.269173 h 0.235645 z m 2.333707,0.384473 c -0.03307,0 -0.06614,0 -0.09922,0 h -0.322461 l 0.438216,-0.384473 c 0.04961,-0.04547 0.186035,-0.148828 0.239779,-0.194303 0.124023,-0.111621 0.289387,-0.256315 0.289387,-0.500228 0,-0.318327 -0.235644,-0.607715 -0.636653,-0.607715 -0.297656,0 -0.483691,0.157097 -0.578776,0.446485 l 0.132292,0.165364 c 0.06615,-0.235644 0.16123,-0.417545 0.405143,-0.417545 0.239779,0 0.417545,0.165364 0.417545,0.417545 0,0.231511 -0.136426,0.363802 -0.305924,0.525033 -0.05788,0.05788 -0.206706,0.181901 -0.268717,0.239778 -0.07855,0.07441 -0.272852,0.260449 -0.355534,0.330729 v 0.194304 h 1.190624 v -0.214974 z m 0,0"
       style="fill:#ffffff;fill-opacity:1;fill-rule:nonzero;stroke:none;stroke-width:0.352778"
       aria-label="Pythonsolver2" />
    <path
       id="path11"
       d="M 56.285062,0.14058413 H 35.843489 c -0.388221,0 -0.702931,0.31470951 -0.702931,0.70292733 V 4.2798032 c 0,0.3882249 0.31471,0.7029273 0.702931,0.7029273 h 20.441573 c 0.388222,0 0.702931,-0.3147024 0.702931,-0.7029273 V 0.84351146 c 0,-0.38821782 -0.314709,-0.70292733 -0.702931,-0.70292733 z"
       style="fill:#005eaa;fill-opacity:1;fill-rule:nonzero;stroke:#000000;stroke-width:0.281167;stroke-linecap:butt;stroke-linejoin:miter;stroke-miterlimit:10;stroke-dasharray:1.05439, 1.05439;stroke-dashoffset:0;stroke-opacity:1" />
    <path
       id="path12"
       d="m 37.365617,2.4624596 c 0.363802,0 0.686263,-0.2563151 0.686263,-0.578776 0,-0.3017904 -0.297656,-0.5705078 -0.706933,-0.5705078 h -0.756543 v 1.951302 h 0.28112 V 2.4624596 Z m -0.09095,-0.9839192 c 0.318327,0 0.520898,0.1694987 0.520898,0.4051432 0,0.2315104 -0.190169,0.4051432 -0.520898,0.4051432 H 36.861255 V 1.4785404 Z m 2.276863,0.5374348 h -0.227376 c -0.227376,0.5374349 -0.384473,0.901237 -0.396875,1.0707357 -0.0041,-0.078548 -0.05374,-0.2191081 -0.103353,-0.3513998 -0.04547,-0.111621 -0.09095,-0.2232421 -0.14056,-0.3348632 L 38.505599,2.0159752 h -0.243912 l 0.58291,1.2485026 c -0.03307,0.082682 -0.09095,0.2108398 -0.107487,0.2480469 -0.05788,0.1157551 -0.09922,0.1570963 -0.173633,0.1570963 -0.0124,0 -0.115755,0 -0.235644,-0.049609 l 0.01654,0.1943034 c 0.0248,0.00827 0.128158,0.024804 0.214974,0.024804 0.111621,0 0.214974,-0.041341 0.334863,-0.3141927 z m 0.574642,0.177767 h 0.413412 V 2.0159752 H 40.126172 V 1.6604414 h -0.219108 v 0.3555338 h -0.252181 v 0.177767 h 0.243913 v 0.7110676 c 0,0.1901693 0.04961,0.3886068 0.252181,0.3886068 0.202572,0 0.355534,-0.066146 0.44235,-0.1033529 l -0.04961,-0.181901 c -0.09095,0.066146 -0.190169,0.09095 -0.268718,0.09095 -0.119889,0 -0.148828,-0.1157552 -0.148828,-0.2439127 z m 1.856218,0.2397786 c 0,-0.2191081 -0.06201,-0.4464843 -0.409278,-0.4464843 -0.243912,0 -0.37207,0.1405598 -0.425813,0.2025715 V 1.3131758 H 40.90752 v 1.951302 h 0.248047 V 2.5823489 c 0,-0.1860351 0.07855,-0.4092773 0.293522,-0.4092773 0.289388,0 0.289388,0.1984375 0.289388,0.2769857 v 0.8144205 h 0.243913 z m 1.641243,0.214974 c 0,-0.3720703 -0.293522,-0.6738607 -0.661458,-0.6738607 -0.363802,0 -0.661459,0.3059245 -0.661459,0.6738607 0,0.3555338 0.297657,0.6449218 0.661459,0.6449218 0.367936,0 0.661458,-0.289388 0.661458,-0.6449218 z m -0.661458,0.4506184 c -0.223243,0 -0.413412,-0.1653646 -0.413412,-0.4795573 0,-0.3183268 0.206706,-0.4588866 0.413412,-0.4588866 0.210839,0 0.417545,0.1446939 0.417545,0.4588866 0,0.3183269 -0.198437,0.4795573 -0.417545,0.4795573 z m 2.056722,-0.6655924 c 0,-0.2191081 -0.06201,-0.4464843 -0.409278,-0.4464843 -0.16123,0 -0.314192,0.066146 -0.438216,0.2149739 V 1.9953047 h -0.227376 v 1.2691731 h 0.248047 V 2.5823489 c 0,-0.1860351 0.07855,-0.4092773 0.293522,-0.4092773 0.289388,0 0.289388,0.1984375 0.289388,0.2769857 v 0.8144205 h 0.243913 z M 47.27509,2.0614505 c -0.19017,-0.078548 -0.33073,-0.086816 -0.434083,-0.086816 -0.07028,0 -0.491959,0 -0.491959,0.3720703 0,0.1322916 0.07028,0.2067057 0.107487,0.2397786 0.09922,0.099219 0.219108,0.1198894 0.367936,0.1488281 0.132292,0.024804 0.28112,0.053743 0.28112,0.1901693 0,0.1777669 -0.231511,0.1777669 -0.272852,0.1777669 -0.177767,0 -0.347265,-0.066146 -0.458887,-0.144694 l -0.04134,0.2108399 c 0.09922,0.045475 0.268717,0.1240234 0.500227,0.1240234 0.128158,0 0.252181,-0.020671 0.355534,-0.095085 0.103353,-0.078548 0.136426,-0.2025716 0.136426,-0.2976563 0,-0.053743 -0.0041,-0.1612304 -0.119889,-0.2687174 -0.107487,-0.09095 -0.206706,-0.1116211 -0.343132,-0.1364258 -0.165364,-0.033073 -0.293522,-0.057878 -0.293522,-0.181901 0,-0.1612305 0.202571,-0.1612305 0.248047,-0.1612305 0.157096,0 0.28112,0.037207 0.421679,0.107487 z m 1.525488,0.5870443 c 0,-0.3720703 -0.293523,-0.6738607 -0.661458,-0.6738607 -0.363802,0 -0.661459,0.3059245 -0.661459,0.6738607 0,0.3555338 0.297657,0.6449218 0.661459,0.6449218 0.367935,0 0.661458,-0.289388 0.661458,-0.6449218 z M 48.13912,3.0991132 c -0.223243,0 -0.413412,-0.1653646 -0.413412,-0.4795573 0,-0.3183268 0.206706,-0.4588866 0.413412,-0.4588866 0.210839,0 0.417545,0.1446939 0.417545,0.4588866 0,0.3183269 -0.198438,0.4795573 -0.417545,0.4795573 z m 1.22163,-1.7859374 h -0.235644 v 1.951302 h 0.235644 z m 1.571997,0.7027994 h -0.223242 c -0.384472,0.9425781 -0.401009,1.0169922 -0.413412,1.083138 h -0.0041 C 50.271289,2.9874921 50.192741,2.7931887 50.105924,2.5740807 L 49.878548,2.0159752 h -0.235644 l 0.516764,1.2485026 h 0.260449 z m 1.252637,0.9425781 c -0.157096,0.1116211 -0.334864,0.1488281 -0.454753,0.1488281 -0.243913,0 -0.429947,-0.1984375 -0.438216,-0.4588866 h 0.921908 c 0,-0.1281576 -0.0124,-0.3183269 -0.124024,-0.4795573 -0.09922,-0.1405599 -0.268717,-0.1943034 -0.405143,-0.1943034 -0.343132,0 -0.607715,0.3017904 -0.607715,0.6573242 0,0.3596679 0.28112,0.6614583 0.65319,0.6614583 0.161231,0 0.33073,-0.049609 0.471289,-0.1364258 z M 51.313086,2.478996 c 0.06615,-0.2232421 0.23151,-0.3183267 0.37207,-0.3183267 0.124024,0 0.305925,0.057878 0.359668,0.3183267 z m 1.468644,0.1860352 c 0,-0.3017904 0.252181,-0.4671549 0.500228,-0.4671549 V 1.9870365 c -0.235645,0.00413 -0.409278,0.1198893 -0.520899,0.2687174 V 1.9953047 h -0.214974 v 1.2691731 h 0.235645 z m 2.441195,-1.302246 h -0.06201 c -0.181903,0.1653645 -0.413414,0.1777669 -0.578778,0.1860351 v 0.1736328 c 0.107487,0 0.248047,-0.00827 0.388606,-0.062012 v 1.4262695 h -0.37207 v 0.1777669 h 1.000456 V 3.0867109 h -0.376204 z m 0,0"
       style="fill:#ffffff;fill-opacity:1;fill-rule:nonzero;stroke:none;stroke-width:0.352778"
       aria-label="Pythonsolver1" />
    <path
       id="path13"
       d="M 52.767932,44.96417 H 39.36062 c -0.388221,0 -0.702931,0.314706 -0.702931,0.702931 v 2.88956 c 0,0.388222 0.31471,0.702927 0.702931,0.702927 h 13.407312 c 0.388221,0 0.70293,-0.314705 0.70293,-0.702927 v -2.88956 c 0,-0.388225 -0.314709,-0.702931 -0.70293,-0.702931 z"
       style="fill:#005eaa;fill-opacity:1;fill-rule:nonzero;stroke:#000000;stroke-width:0.281167;stroke-linecap:butt;stroke-linejoin:miter;stroke-miterlimit:10;stroke-dasharray:1.05439, 1.05439;stroke-dashoffset:0;stroke-opacity:1" />
    <path
       id="path14"
       d="m 41.57001,47.74445 c -0.198437,0.119889 -0.285253,0.173633 -0.566373,0.173633 -0.438216,0 -0.7028,-0.405143 -0.7028,-0.810286 0,-0.417546 0.289388,-0.806153 0.7028,-0.806153 0.181901,0 0.376204,0.05788 0.504362,0.157097 l 0.04548,-0.256316 c -0.198437,-0.07441 -0.355534,-0.09508 -0.558105,-0.09508 -0.558106,0 -0.975651,0.458887 -0.975651,1.000456 0,0.578776 0.44235,1.008723 0.992187,1.008723 0.272852,0 0.388607,-0.05788 0.574642,-0.157096 z m 2.18798,-0.859896 c -0.190169,-0.07855 -0.330729,-0.08682 -0.434082,-0.08682 -0.07028,0 -0.491959,0 -0.491959,0.37207 0,0.132292 0.07028,0.206706 0.107487,0.239779 0.09922,0.09922 0.219108,0.119889 0.367936,0.148828 0.132292,0.02481 0.28112,0.05374 0.28112,0.190169 0,0.177767 -0.23151,0.177767 -0.272852,0.177767 -0.177767,0 -0.347265,-0.06615 -0.458886,-0.144694 l -0.04134,0.21084 c 0.09922,0.04548 0.268718,0.124023 0.500228,0.124023 0.128158,0 0.252181,-0.02067 0.355534,-0.09508 0.103353,-0.07855 0.136426,-0.202572 0.136426,-0.297656 0,-0.05374 -0.0041,-0.161231 -0.119889,-0.268718 -0.107487,-0.09095 -0.206706,-0.111621 -0.343132,-0.136426 -0.165365,-0.03307 -0.293522,-0.05788 -0.293522,-0.181901 0,-0.16123 0.202572,-0.16123 0.248047,-0.16123 0.157096,0 0.28112,0.03721 0.42168,0.107487 z m 1.525489,0.587045 c 0,-0.372071 -0.293522,-0.673861 -0.661459,-0.673861 -0.363802,0 -0.661458,0.305924 -0.661458,0.673861 0,0.355533 0.297656,0.644921 0.661458,0.644921 0.367937,0 0.661459,-0.289388 0.661459,-0.644921 z m -0.661459,0.450618 c -0.223242,0 -0.413411,-0.165365 -0.413411,-0.479557 0,-0.318327 0.206706,-0.458887 0.413411,-0.458887 0.21084,0 0.417546,0.144694 0.417546,0.458887 0,0.318327 -0.198437,0.479557 -0.417546,0.479557 z m 1.221631,-1.785937 h -0.235644 v 1.951302 h 0.235644 z m 1.571997,0.702799 h -0.223242 c -0.384473,0.942578 -0.401009,1.016992 -0.413411,1.083138 h -0.0041 c -0.02067,-0.111621 -0.09922,-0.305924 -0.186035,-0.525032 l -0.227376,-0.558106 h -0.235645 l 0.516764,1.248503 h 0.26045 z m 1.252637,0.942578 c -0.157097,0.111621 -0.334863,0.148828 -0.454753,0.148828 -0.243912,0 -0.429948,-0.198437 -0.438216,-0.458886 h 0.921908 c 0,-0.128158 -0.0124,-0.318327 -0.124024,-0.479558 -0.09922,-0.14056 -0.268717,-0.194303 -0.405143,-0.194303 -0.343131,0 -0.607715,0.30179 -0.607715,0.657324 0,0.359668 0.28112,0.661458 0.65319,0.661458 0.161231,0 0.330729,-0.04961 0.471289,-0.136425 z M 47.795987,47.3021 c 0.06614,-0.223242 0.23151,-0.318327 0.37207,-0.318327 0.124023,0 0.305924,0.05788 0.359668,0.318327 z m 1.468644,0.186035 c 0,-0.30179 0.252181,-0.467155 0.500228,-0.467155 v -0.21084 c -0.235645,0.0041 -0.409278,0.11989 -0.520899,0.268718 v -0.260449 h -0.214974 v 1.269173 h 0.235645 z m 2.441194,-1.302246 h -0.06201 c -0.181901,0.165365 -0.413412,0.177767 -0.578776,0.186035 v 0.173633 c 0.107486,0 0.248047,-0.0083 0.388606,-0.06201 v 1.42627 h -0.37207 v 0.177767 h 1.000456 v -0.177767 h -0.376205 z m 0,0"
       style="fill:#ffffff;fill-opacity:1;fill-rule:nonzero;stroke:none;stroke-width:0.352778"
       aria-label="Csolver1" />
    <path
       id="path15"
       d="M 52.767932,59.54088 H 39.36062 c -0.388221,0 -0.702931,0.31471 -0.702931,0.702927 v 2.889564 c 0,0.388225 0.31471,0.702931 0.702931,0.702931 h 13.407312 c 0.388221,0 0.70293,-0.314706 0.70293,-0.702931 v -2.889564 c 0,-0.388217 -0.314709,-0.702927 -0.70293,-0.702927 z"
       style="fill:#005eaa;fill-opacity:1;fill-rule:nonzero;stroke:#000000;stroke-width:0.281167;stroke-linecap:butt;stroke-linejoin:miter;stroke-miterlimit:10;stroke-dasharray:1.05439, 1.05439;stroke-dashoffset:0;stroke-opacity:1" />
    <path
       id="path16"
       d="m 41.57001,62.321337 c -0.198437,0.119889 -0.285253,0.173633 -0.566373,0.173633 -0.438216,0 -0.7028,-0.405143 -0.7028,-0.810286 0,-0.417546 0.289388,-0.806153 0.7028,-0.806153 0.181901,0 0.376204,0.05788 0.504362,0.157097 l 0.04548,-0.256316 c -0.198437,-0.07441 -0.355534,-0.09508 -0.558105,-0.09508 -0.558106,0 -0.975651,0.458887 -0.975651,1.000456 0,0.578776 0.44235,1.008723 0.992187,1.008723 0.272852,0 0.388607,-0.05788 0.574642,-0.157096 z m 2.18798,-0.859896 c -0.190169,-0.07855 -0.330729,-0.08682 -0.434082,-0.08682 -0.07028,0 -0.491959,0 -0.491959,0.37207 0,0.132292 0.07028,0.206706 0.107487,0.239779 0.09922,0.09922 0.219108,0.119889 0.367936,0.148828 0.132292,0.02481 0.28112,0.05374 0.28112,0.190169 0,0.177767 -0.23151,0.177767 -0.272852,0.177767 -0.177767,0 -0.347265,-0.06615 -0.458886,-0.144694 l -0.04134,0.21084 c 0.09922,0.04548 0.268718,0.124023 0.500228,0.124023 0.128158,0 0.252181,-0.02067 0.355534,-0.09508 0.103353,-0.07855 0.136426,-0.202572 0.136426,-0.297656 0,-0.05374 -0.0041,-0.161231 -0.119889,-0.268718 -0.107487,-0.09095 -0.206706,-0.111621 -0.343132,-0.136426 -0.165365,-0.03307 -0.293522,-0.05788 -0.293522,-0.181901 0,-0.16123 0.202572,-0.16123 0.248047,-0.16123 0.157096,0 0.28112,0.03721 0.42168,0.107487 z m 1.525489,0.587045 c 0,-0.372071 -0.293522,-0.673861 -0.661459,-0.673861 -0.363802,0 -0.661458,0.305924 -0.661458,0.673861 0,0.355533 0.297656,0.644921 0.661458,0.644921 0.367937,0 0.661459,-0.289388 0.661459,-0.644921 z m -0.661459,0.450618 c -0.223242,0 -0.413411,-0.165364 -0.413411,-0.479557 0,-0.318327 0.206706,-0.458887 0.413411,-0.458887 0.21084,0 0.417546,0.144694 0.417546,0.458887 0,0.318327 -0.198437,0.479557 -0.417546,0.479557 z m 1.221631,-1.785937 h -0.235644 v 1.951302 h 0.235644 z m 1.571997,0.702799 h -0.223242 c -0.384473,0.942578 -0.401009,1.016992 -0.413411,1.083138 h -0.0041 c -0.02067,-0.111621 -0.09922,-0.305924 -0.186035,-0.525032 l -0.227376,-0.558106 h -0.235645 l 0.516764,1.248503 h 0.26045 z m 1.252637,0.942578 c -0.157097,0.111621 -0.334863,0.148828 -0.454753,0.148828 -0.243912,0 -0.429948,-0.198437 -0.438216,-0.458886 h 0.921908 c 0,-0.128158 -0.0124,-0.318327 -0.124024,-0.479558 -0.09922,-0.14056 -0.268717,-0.194303 -0.405143,-0.194303 -0.343131,0 -0.607715,0.30179 -0.607715,0.657324 0,0.359668 0.28112,0.661458 0.65319,0.661458 0.161231,0 0.330729,-0.04961 0.471289,-0.136425 z m -0.872298,-0.479557 c 0.06614,-0.223242 0.23151,-0.318327 0.37207,-0.318327 0.124023,0 0.305924,0.05788 0.359668,0.318327 z m 1.468644,0.186035 c 0,-0.30179 0.252181,-0.467155 0.500228,-0.467155 v -0.21084 c -0.235645,0.0041 -0.409278,0.11989 -0.520899,0.268718 v -0.260449 h -0.214974 v 1.269173 h 0.235645 z m 2.333707,0.384473 c -0.03307,0 -0.06614,0 -0.09922,0 h -0.322461 l 0.438216,-0.384473 c 0.04961,-0.04547 0.186035,-0.148828 0.239778,-0.194303 0.124024,-0.111621 0.289389,-0.256315 0.289389,-0.500228 0,-0.318327 -0.235645,-0.607715 -0.636654,-0.607715 -0.297656,0 -0.483692,0.157096 -0.578776,0.446484 l 0.132291,0.165365 c 0.06615,-0.235645 0.161231,-0.417546 0.405144,-0.417546 0.239778,0 0.417545,0.165365 0.417545,0.417546 0,0.23151 -0.136425,0.363802 -0.305924,0.525033 -0.05788,0.05788 -0.206706,0.181901 -0.268718,0.239778 -0.07855,0.07441 -0.272851,0.260449 -0.355533,0.330729 v 0.194304 h 1.190625 v -0.214974 z m 0,0"
       style="fill:#ffffff;fill-opacity:1;fill-rule:nonzero;stroke:none;stroke-width:0.352778"
       aria-label="Csolver2" />
    <path
       id="path17"
       d="m 3.2426375,1.3627853 c -0.03721,-0.090951 -0.08268,-0.090951 -0.140559,-0.090951 -0.09922,0 -0.111622,0.024805 -0.136426,0.090951 L 2.0933548,3.4753178 C 2.0726838,3.5290612 2.0602818,3.558 1.7956978,3.558 h -0.07441 v 0.1653646 c 0.132292,-0.00413 0.301791,-0.012402 0.409278,-0.012402 0.136425,0 0.334863,0 0.4671547,0.012402 V 3.558 c -0.0083,0 -0.3141927,0 -0.3141927,-0.045475 0,-0.00413 0.0083,-0.037207 0.0124,-0.041341 L 2.4736948,3.0453703 H 3.4162725 L 3.6271105,3.558 h -0.334863 v 0.1653646 c 0.132291,-0.012402 0.467155,-0.012402 0.615983,-0.012402 0.14056,0 0.450618,0 0.574642,0.012402 V 3.558 h -0.338998 z m -0.297656,0.541569 0.401009,0.975651 H 2.5439728 Z m 0,0"
       style="fill:#000000;fill-opacity:1;fill-rule:nonzero;stroke:none;stroke-width:0.352778"
       aria-label="A" />
    <path
       id="path18"
       d="M 13.456855,15.123437 33.747411,3.2920537"
       style="fill:none;stroke:#000000;stroke-width:0.281167;stroke-linecap:butt;stroke-linejoin:miter;stroke-miterlimit:10;stroke-dasharray:none;stroke-opacity:1" />
    <path
       id="path19"
       d="M 34.654127,2.7633333 33.109321,3.0227762 33.808136,3.256647 33.667505,3.9800145 Z"
       style="fill:#000000;fill-opacity:1;fill-rule:nonzero;stroke:#000000;stroke-width:0.281155;stroke-linecap:butt;stroke-linejoin:miter;stroke-miterlimit:10;stroke-dasharray:none;stroke-opacity:1" />
    <path
       id="path20"
       d="M 17.863133,16.816128 33.557045,15.265969"
       style="fill:none;stroke:#000000;stroke-width:0.281167;stroke-linecap:butt;stroke-linejoin:miter;stroke-miterlimit:10;stroke-dasharray:none;stroke-opacity:1" />
    <path
       id="path21"
       d="m 34.601543,15.16279 -1.512538,-0.407323 0.537976,0.503595 -0.429045,0.59912 z"
       style="fill:#000000;fill-opacity:1;fill-rule:nonzero;stroke:#000000;stroke-width:0.281152;stroke-linecap:butt;stroke-linejoin:miter;stroke-miterlimit:10;stroke-dasharray:none;stroke-opacity:1" />
    <path
       id="path22"
       d="m 14.923743,20.246757 21.556895,9.419565"
       style="fill:none;stroke:#000000;stroke-width:0.281167;stroke-linecap:butt;stroke-linejoin:miter;stroke-miterlimit:10;stroke-dasharray:none;stroke-opacity:1" />
    <path
       id="path23"
       d="m 37.442419,30.086584 -1.120756,-1.094349 0.223378,0.702232 -0.667057,0.31315 z"
       style="fill:#000000;fill-opacity:1;fill-rule:nonzero;stroke:#000000;stroke-width:0.281152;stroke-linecap:butt;stroke-linejoin:miter;stroke-miterlimit:10;stroke-dasharray:none;stroke-opacity:1" />
    <path
       id="path24"
       d="M 11.841549,20.246757 37.450755,43.841106"
       style="fill:none;stroke:#000000;stroke-width:0.281167;stroke-linecap:butt;stroke-linejoin:miter;stroke-miterlimit:10;stroke-dasharray:none;stroke-opacity:1" />
    <path
       id="path25"
       d="m 38.222668,44.552306 -0.702135,-1.400247 -0.01809,0.736681 -0.732737,0.07825 z"
       style="fill:#000000;fill-opacity:1;fill-rule:nonzero;stroke:#000000;stroke-width:0.281152;stroke-linecap:butt;stroke-linejoin:miter;stroke-miterlimit:10;stroke-dasharray:none;stroke-opacity:1" />
    <path
       id="path26"
       d="M 10.994755,20.246757 39.64413,58.242517"
       style="fill:none;stroke:#000000;stroke-width:0.281167;stroke-linecap:butt;stroke-linejoin:miter;stroke-miterlimit:10;stroke-dasharray:none;stroke-opacity:1" />
    <path
       id="path27"
       d="m 40.276063,59.080619 -0.439741,-1.503505 -0.149873,0.721534 -0.734925,-0.05439 z"
       style="fill:#000000;fill-opacity:1;fill-rule:nonzero;stroke:#000000;stroke-width:0.281164;stroke-linecap:butt;stroke-linejoin:miter;stroke-miterlimit:10;stroke-dasharray:none;stroke-opacity:1" />
    <path
       id="path28"
       d="M 11.22823,30.246878 34.003411,6.176534"
       style="fill:none;stroke:#000000;stroke-width:0.281167;stroke-linecap:butt;stroke-linejoin:miter;stroke-miterlimit:10;stroke-dasharray:none;stroke-opacity:1" />
    <path
       id="path29"
       d="m 34.724804,5.4141356 -1.409463,0.6834588 0.736378,0.02788 0.0685,0.7337151 z"
       style="fill:#000000;fill-opacity:1;fill-rule:nonzero;stroke:#000000;stroke-width:0.281153;stroke-linecap:butt;stroke-linejoin:miter;stroke-miterlimit:10;stroke-dasharray:none;stroke-opacity:1" />
    <path
       id="path30"
       d="M 13.060226,30.246878 33.741657,18.405561"
       style="fill:none;stroke:#000000;stroke-width:0.281167;stroke-linecap:butt;stroke-linejoin:miter;stroke-miterlimit:10;stroke-dasharray:none;stroke-opacity:1" />
    <path
       id="path31"
       d="m 34.65252,17.88403 -1.546813,0.247212 0.696944,0.239393 -0.146351,0.722233 z"
       style="fill:#000000;fill-opacity:1;fill-rule:nonzero;stroke:#000000;stroke-width:0.281155;stroke-linecap:butt;stroke-linejoin:miter;stroke-miterlimit:10;stroke-dasharray:none;stroke-opacity:1" />
    <path
       id="path32"
       d="M 14.47641,32.535171 H 36.35925"
       style="fill:none;stroke:#000000;stroke-width:0.281167;stroke-linecap:butt;stroke-linejoin:miter;stroke-miterlimit:10;stroke-dasharray:none;stroke-opacity:1" />
    <path
       id="path33"
       d="m 37.408903,32.535171 -1.465252,-0.554073 0.485892,0.554073 -0.485892,0.554073 z"
       style="fill:#000000;fill-opacity:1;fill-rule:nonzero;stroke:#000000;stroke-width:0.281167;stroke-linecap:butt;stroke-linejoin:miter;stroke-miterlimit:10;stroke-dasharray:none;stroke-opacity:1" />
    <path
       id="path34"
       d="M 13.687021,34.823464 37.217569,46.468746"
       style="fill:none;stroke:#000000;stroke-width:0.281167;stroke-linecap:butt;stroke-linejoin:miter;stroke-miterlimit:10;stroke-dasharray:none;stroke-opacity:1" />
    <path
       id="path35"
       d="m 38.158275,46.934304 -1.067426,-1.146448 0.189713,0.712073 -0.681208,0.281058 z"
       style="fill:#000000;fill-opacity:1;fill-rule:nonzero;stroke:#000000;stroke-width:0.281155;stroke-linecap:butt;stroke-linejoin:miter;stroke-miterlimit:10;stroke-dasharray:none;stroke-opacity:1" />
    <path
       id="path36"
       d="M 11.571458,34.823464 37.445845,58.423199"
       style="fill:none;stroke:#000000;stroke-width:0.281167;stroke-linecap:butt;stroke-linejoin:miter;stroke-miterlimit:10;stroke-dasharray:none;stroke-opacity:1" />
    <path
       id="path37"
       d="m 38.221302,59.130494 -0.709143,-1.396683 -0.01439,0.736751 -0.732323,0.08192 z"
       style="fill:#000000;fill-opacity:1;fill-rule:nonzero;stroke:#000000;stroke-width:0.281147;stroke-linecap:butt;stroke-linejoin:miter;stroke-miterlimit:10;stroke-dasharray:none;stroke-opacity:1" />
    <path
       id="path38"
       d="M 10.584718,44.823585 36.196761,6.3304862"
       style="fill:none;stroke:#000000;stroke-width:0.281167;stroke-linecap:butt;stroke-linejoin:miter;stroke-miterlimit:10;stroke-dasharray:none;stroke-opacity:1" />
    <path
       id="path39"
       d="m 36.778174,5.4566473 -1.272898,0.9129102 0.730411,-0.097593 0.19212,0.7114166 z"
       style="fill:#000000;fill-opacity:1;fill-rule:nonzero;stroke:#000000;stroke-width:0.281151;stroke-linecap:butt;stroke-linejoin:miter;stroke-miterlimit:10;stroke-dasharray:none;stroke-opacity:1" />
    <path
       id="path40"
       d="M 11.272014,44.823585 33.992852,21.289942"
       style="fill:none;stroke:#000000;stroke-width:0.281167;stroke-linecap:butt;stroke-linejoin:miter;stroke-miterlimit:10;stroke-dasharray:none;stroke-opacity:1" />
    <path
       id="path41"
       d="m 34.721885,20.534809 -1.416301,0.669301 0.736086,0.03527 0.06114,0.734391 z"
       style="fill:#000000;fill-opacity:1;fill-rule:nonzero;stroke:#000000;stroke-width:0.281162;stroke-linecap:butt;stroke-linejoin:miter;stroke-miterlimit:10;stroke-dasharray:none;stroke-opacity:1" />
    <path
       id="path42"
       d="M 14.415518,44.823585 36.476013,35.393401"
       style="fill:none;stroke:#000000;stroke-width:0.281167;stroke-linecap:butt;stroke-linejoin:miter;stroke-miterlimit:10;stroke-dasharray:none;stroke-opacity:1" />
    <path
       id="path43"
       d="m 37.441148,34.980838 -1.565048,0.06646 0.664546,0.318479 -0.228989,0.700439 z"
       style="fill:#000000;fill-opacity:1;fill-rule:nonzero;stroke:#000000;stroke-width:0.281158;stroke-linecap:butt;stroke-linejoin:miter;stroke-miterlimit:10;stroke-dasharray:none;stroke-opacity:1" />
    <path
       id="path44"
       d="m 16.298603,47.673895 20.772916,1.613969"
       style="fill:none;stroke:#000000;stroke-width:0.281167;stroke-linecap:butt;stroke-linejoin:miter;stroke-miterlimit:10;stroke-dasharray:none;stroke-opacity:1" />
    <path
       id="path45"
       d="m 38.117942,49.369161 -1.41784,-0.665856 0.441486,0.590004 -0.527312,0.51474 z"
       style="fill:#000000;fill-opacity:1;fill-rule:nonzero;stroke:#000000;stroke-width:0.281149;stroke-linecap:butt;stroke-linejoin:miter;stroke-miterlimit:10;stroke-dasharray:none;stroke-opacity:1" />
    <path
       id="path46"
       d="M 13.687021,49.40017 37.217569,61.04546"
       style="fill:none;stroke:#000000;stroke-width:0.281167;stroke-linecap:butt;stroke-linejoin:miter;stroke-miterlimit:10;stroke-dasharray:none;stroke-opacity:1" />
    <path
       id="path47"
       d="m 38.158275,61.511015 -1.067426,-1.146448 0.189713,0.712073 -0.681208,0.281058 z"
       style="fill:#000000;fill-opacity:1;fill-rule:nonzero;stroke:#000000;stroke-width:0.281155;stroke-linecap:butt;stroke-linejoin:miter;stroke-miterlimit:10;stroke-dasharray:none;stroke-opacity:1" />
    <path
       id="path1-4"
       d="m 80.572488,30.387467 h -9.138083 c -0.388225,0 -0.702931,0.314706 -0.702931,0.702927 v 2.889554 c 0,0.388221 0.314706,0.702927 0.702931,0.702927 h 9.138083 c 0.388218,0 0.702928,-0.314706 0.702928,-0.702927 v -2.889554 c 0,-0.388221 -0.31471,-0.702927 -0.702928,-0.702927 z"
       style="fill:#d0662b;fill-opacity:1;fill-rule:nonzero;stroke:#000000;stroke-width:0.281167;stroke-linecap:butt;stroke-linejoin:miter;stroke-miterlimit:10;stroke-dasharray:none;stroke-opacity:1" />
    <path
       id="path2-7"
       d="m 73.774769,33.168596 c -0.198438,0.11989 -0.285254,0.173633 -0.566374,0.173633 -0.438216,0 -0.7028,-0.405143 -0.7028,-0.810286 0,-0.417546 0.289388,-0.806152 0.7028,-0.806152 0.181901,0 0.376204,0.05788 0.504362,0.157096 l 0.04548,-0.256315 c -0.198437,-0.07441 -0.355534,-0.09509 -0.558105,-0.09509 -0.558106,0 -0.975651,0.458887 -0.975651,1.000456 0,0.578776 0.44235,1.008724 0.992187,1.008724 0.272852,0 0.388607,-0.05788 0.574642,-0.157097 z m 2.469099,-0.905371 h -0.243912 v 0.814421 c 0,0.227376 -0.19017,0.297656 -0.355534,0.297656 -0.206706,0 -0.227377,-0.05788 -0.227377,-0.186035 v -0.926042 h -0.248046 v 0.942578 c 0,0.248047 0.111621,0.334864 0.310058,0.334864 0.111621,0 0.359668,-0.02481 0.529167,-0.157097 v 0.128158 h 0.235644 z m 1.261939,0.04548 c -0.190169,-0.07855 -0.33073,-0.08682 -0.434082,-0.08682 -0.07028,0 -0.49196,0 -0.49196,0.372071 0,0.132291 0.07028,0.206705 0.107487,0.239778 0.09922,0.09922 0.219108,0.11989 0.367936,0.148828 0.132292,0.02481 0.28112,0.05374 0.28112,0.19017 0,0.177766 -0.23151,0.177766 -0.272852,0.177766 -0.177766,0 -0.347265,-0.06614 -0.458886,-0.144694 l -0.04134,0.21084 c 0.09922,0.04548 0.268717,0.124024 0.500227,0.124024 0.128158,0 0.252182,-0.02067 0.355534,-0.09508 0.103353,-0.07855 0.136426,-0.202572 0.136426,-0.297656 0,-0.05374 -0.0041,-0.161231 -0.119889,-0.268718 -0.107487,-0.09095 -0.206706,-0.111621 -0.343132,-0.136425 -0.165364,-0.03307 -0.293522,-0.05788 -0.293522,-0.181901 0,-0.161231 0.202572,-0.161231 0.248047,-0.161231 0.157097,0 0.28112,0.03721 0.42168,0.107487 z m 1.32705,0.897102 c -0.157096,0.111622 -0.334863,0.148829 -0.454752,0.148829 -0.243913,0 -0.429948,-0.198438 -0.438216,-0.458887 h 0.921907 c 0,-0.128158 -0.0124,-0.318327 -0.124023,-0.479557 -0.09922,-0.14056 -0.268718,-0.194304 -0.405143,-0.194304 -0.343132,0 -0.607715,0.301791 -0.607715,0.657324 0,0.359668 0.28112,0.661459 0.65319,0.661459 0.16123,0 0.330729,-0.04961 0.471289,-0.136426 z M 77.960559,32.72625 c 0.06615,-0.223242 0.231511,-0.318327 0.372071,-0.318327 0.124023,0 0.305924,0.05788 0.359668,0.318327 z m 1.467611,0.186035 c 0,-0.30179 0.252181,-0.467155 0.500228,-0.467155 v -0.210839 c -0.235645,0.0041 -0.409277,0.119889 -0.520899,0.268717 v -0.260449 h -0.214974 v 1.269173 h 0.235645 z m 0,0"
       style="fill:#ffffff;fill-opacity:1;fill-rule:nonzero;stroke:none;stroke-width:0.352778"
       aria-label="Cuser" />
    <path
       id="path3-8"
       d="M 83.959204,15.264026 H 68.047682 c -0.388225,0 -0.702931,0.314706 -0.702931,0.702927 v 3.436288 c 0,0.388225 0.314706,0.702931 0.702931,0.702931 h 15.911522 c 0.388225,0 0.702927,-0.314706 0.702927,-0.702931 v -3.436288 c 0,-0.388221 -0.314702,-0.702927 -0.702927,-0.702927 z"
       style="fill:#d0662b;fill-opacity:1;fill-rule:nonzero;stroke:#000000;stroke-width:0.281167;stroke-linecap:butt;stroke-linejoin:miter;stroke-miterlimit:10;stroke-dasharray:none;stroke-opacity:1" />
    <path
       id="path4-4"
       d="m 69.570374,17.586085 c 0.363803,0 0.686263,-0.256315 0.686263,-0.578776 0,-0.301791 -0.297656,-0.570508 -0.706933,-0.570508 h -0.756543 v 1.951302 h 0.28112 v -0.802018 z m -0.09095,-0.98392 c 0.318327,0 0.520898,0.169499 0.520898,0.405144 0,0.23151 -0.190169,0.405143 -0.520898,0.405143 h -0.413411 v -0.810287 z m 2.276863,0.537435 h -0.227376 c -0.227376,0.537435 -0.384472,0.901237 -0.396875,1.070736 -0.0041,-0.07855 -0.05374,-0.219108 -0.103353,-0.3514 -0.04548,-0.111621 -0.09095,-0.223242 -0.14056,-0.334863 L 70.710357,17.1396 h -0.243913 l 0.58291,1.248503 c -0.03307,0.08268 -0.09095,0.21084 -0.107487,0.248047 -0.05788,0.115755 -0.09922,0.157096 -0.173633,0.157096 -0.0124,0 -0.115755,0 -0.235644,-0.04961 l 0.01654,0.194303 c 0.0248,0.0083 0.128158,0.02481 0.214974,0.02481 0.111621,0 0.214974,-0.04134 0.334863,-0.314193 z m 0.574642,0.177767 h 0.413412 V 17.1396 H 72.330929 V 16.784066 H 72.111821 V 17.1396 H 71.85964 v 0.177767 h 0.243913 v 0.711068 c 0,0.190169 0.04961,0.388607 0.252181,0.388607 0.202572,0 0.355534,-0.06615 0.44235,-0.103353 l -0.04961,-0.181901 c -0.09095,0.06615 -0.190169,0.09095 -0.268718,0.09095 -0.119889,0 -0.148828,-0.115755 -0.148828,-0.243913 z m 1.856218,0.239779 c 0,-0.219108 -0.06201,-0.446485 -0.409277,-0.446485 -0.243913,0 -0.372071,0.14056 -0.425815,0.202572 v -0.876432 h -0.239778 v 1.951302 h 0.248047 v -0.682129 c 0,-0.186035 0.07855,-0.409277 0.293522,-0.409277 0.289388,0 0.289388,0.198437 0.289388,0.276985 v 0.814421 h 0.243913 z m 1.641243,0.214974 c 0,-0.372071 -0.293522,-0.673861 -0.661458,-0.673861 -0.363802,0 -0.661458,0.305925 -0.661458,0.673861 0,0.355534 0.297656,0.644922 0.661458,0.644922 0.367936,0 0.661458,-0.289388 0.661458,-0.644922 z m -0.661458,0.450618 c -0.223242,0 -0.413411,-0.165364 -0.413411,-0.479557 0,-0.318327 0.206705,-0.458887 0.413411,-0.458887 0.21084,0 0.417545,0.144694 0.417545,0.458887 0,0.318327 -0.198437,0.479557 -0.417545,0.479557 z m 2.056722,-0.665592 c 0,-0.219108 -0.06201,-0.446485 -0.409278,-0.446485 -0.16123,0 -0.314192,0.06615 -0.438216,0.214974 V 17.11893 h -0.227376 v 1.269173 h 0.248047 v -0.682129 c 0,-0.186035 0.07855,-0.409277 0.293522,-0.409277 0.289388,0 0.289388,0.198437 0.289388,0.276985 v 0.814421 h 0.243913 z M 79.760966,17.1396 h -0.243912 v 0.814421 c 0,0.227376 -0.19017,0.297656 -0.355534,0.297656 -0.206706,0 -0.227377,-0.05788 -0.227377,-0.186035 V 17.1396 h -0.248046 v 0.942578 c 0,0.248047 0.111621,0.334864 0.310058,0.334864 0.111621,0 0.359668,-0.0248 0.529167,-0.157097 v 0.128158 h 0.235644 z m 1.261939,0.04548 c -0.19017,-0.07855 -0.330729,-0.08682 -0.434082,-0.08682 -0.07028,0 -0.49196,0 -0.49196,0.37207 0,0.132292 0.07028,0.206706 0.107487,0.239779 0.09922,0.09922 0.219108,0.119889 0.367936,0.148828 0.132292,0.02481 0.28112,0.05374 0.28112,0.190169 0,0.177767 -0.23151,0.177767 -0.272851,0.177767 -0.177767,0 -0.347266,-0.06614 -0.458887,-0.144694 l -0.04134,0.21084 c 0.09922,0.04547 0.268717,0.124024 0.500228,0.124024 0.128157,0 0.25218,-0.02067 0.355533,-0.09508 0.103353,-0.07855 0.136426,-0.202572 0.136426,-0.297656 0,-0.05374 -0.0041,-0.161231 -0.119889,-0.268718 -0.107487,-0.09095 -0.206706,-0.111621 -0.343132,-0.136425 -0.165364,-0.03307 -0.293522,-0.05788 -0.293522,-0.181902 0,-0.16123 0.202572,-0.16123 0.248047,-0.16123 0.157096,0 0.28112,0.03721 0.42168,0.107487 z m 1.327051,0.897102 c -0.157097,0.111621 -0.334864,0.148828 -0.454753,0.148828 -0.243913,0 -0.429948,-0.198437 -0.438216,-0.458886 h 0.921907 c 0,-0.128158 -0.0124,-0.318327 -0.124023,-0.479557 -0.09922,-0.14056 -0.268717,-0.194304 -0.405143,-0.194304 -0.343132,0 -0.607715,0.30179 -0.607715,0.657324 0,0.359668 0.28112,0.661459 0.65319,0.661459 0.16123,0 0.330729,-0.04961 0.471289,-0.136426 z m -0.872299,-0.479557 c 0.06615,-0.223242 0.231511,-0.318327 0.372071,-0.318327 0.124023,0 0.305924,0.05788 0.359668,0.318327 z m 1.467611,0.186035 c 0,-0.30179 0.252181,-0.467155 0.500228,-0.467155 v -0.21084 c -0.235645,0.0041 -0.409278,0.11989 -0.520899,0.268718 V 17.11893 h -0.214973 v 1.269173 h 0.235644 z m 0,0"
       style="fill:#ffffff;fill-opacity:1;fill-rule:nonzero;stroke:none;stroke-width:0.352778"
       aria-label="Pythonuser" />
    <path
       id="path5-5"
       d="M 82.394677,44.96417 H 69.612212 c -0.388224,0 -0.702927,0.314706 -0.702927,0.702931 v 2.88956 c 0,0.388222 0.314703,0.702927 0.702927,0.702927 h 12.782465 c 0.388221,0 0.702931,-0.314705 0.702931,-0.702927 v -2.88956 c 0,-0.388225 -0.31471,-0.702931 -0.702931,-0.702931 z"
       style="fill:#d0662b;fill-opacity:1;fill-rule:nonzero;stroke:#000000;stroke-width:0.281167;stroke-linecap:butt;stroke-linejoin:miter;stroke-miterlimit:10;stroke-dasharray:none;stroke-opacity:1" />
    <path
       id="path6-0"
       d="m 71.242623,46.13628 h -0.276985 v 1.521354 c 0,0.05788 0,0.30179 -0.343132,0.30179 -0.198437,0 -0.318327,-0.103353 -0.376204,-0.16123 l -0.04134,0.23151 c 0.152962,0.07028 0.338997,0.115755 0.51263,0.115755 0.297656,0 0.525032,-0.148828 0.525032,-0.475423 z m 1.555461,0.702799 H 72.554171 V 47.6535 c 0,0.227376 -0.190169,0.297656 -0.355534,0.297656 -0.206705,0 -0.227376,-0.05788 -0.227376,-0.186035 v -0.926042 h -0.248047 v 0.942578 c 0,0.248047 0.111621,0.334863 0.310059,0.334863 0.111621,0 0.359668,-0.0248 0.529166,-0.157096 v 0.128158 h 0.235645 z m 0.707967,-0.702799 h -0.235645 v 1.951302 h 0.235645 z m 0.736906,0.0248 h -0.285254 v 0.28112 h 0.285254 z m -0.0248,0.677995 h -0.235644 v 1.248502 h 0.235644 z m 1.440739,0.438216 c 0,-0.285254 -0.219108,-0.479557 -0.500228,-0.479557 -0.177767,0 -0.310058,0.03721 -0.467155,0.119889 l 0.01654,0.206706 c 0.09095,-0.06201 0.23151,-0.148828 0.450618,-0.148828 0.124024,0 0.256316,0.09508 0.256316,0.305924 v 0.111621 c -0.417546,0.0124 -0.826823,0.103353 -0.826823,0.363802 0,0.14056 0.09508,0.359668 0.343131,0.359668 0.11989,0 0.343132,-0.0248 0.49196,-0.136426 v 0.107487 h 0.235644 z m -0.243912,0.409277 c 0,0.05788 0,0.132292 -0.09922,0.19017 -0.09095,0.04961 -0.202572,0.05374 -0.231511,0.05374 -0.152962,0 -0.272851,-0.07028 -0.272851,-0.177767 0,-0.177767 0.475423,-0.198437 0.603581,-0.202571 z m 2.781225,-0.847493 h -0.243914 v 0.81442 c 0,0.227377 -0.190169,0.297657 -0.355534,0.297657 -0.206706,0 -0.227376,-0.05788 -0.227376,-0.186035 v -0.926038 h -0.248051 v 0.942578 c 0,0.248047 0.111621,0.334863 0.310059,0.334863 0.111621,0 0.359668,-0.0248 0.529166,-0.157096 v 0.128158 h 0.235645 z m 1.261938,0.04548 c -0.190169,-0.07855 -0.330729,-0.08682 -0.434082,-0.08682 -0.07028,0 -0.491959,0 -0.491959,0.37207 0,0.132292 0.07028,0.206706 0.107486,0.239779 0.09922,0.09922 0.219109,0.119889 0.367937,0.148828 0.132291,0.0248 0.281119,0.05374 0.281119,0.190169 0,0.177767 -0.23151,0.177767 -0.272851,0.177767 -0.177767,0 -0.347266,-0.06615 -0.458887,-0.144694 l -0.04134,0.21084 c 0.09922,0.04548 0.268718,0.124023 0.500228,0.124023 0.128157,0 0.252181,-0.02067 0.355534,-0.09508 0.103353,-0.07855 0.136426,-0.202572 0.136426,-0.297656 0,-0.05374 -0.0041,-0.161231 -0.11989,-0.268718 -0.107487,-0.09095 -0.206705,-0.111621 -0.343131,-0.136426 -0.165365,-0.03307 -0.293522,-0.05788 -0.293522,-0.181901 0,-0.16123 0.202571,-0.16123 0.248047,-0.16123 0.157096,0 0.281119,0.03721 0.421679,0.107487 z m 1.327051,0.897103 c -0.157097,0.111621 -0.334863,0.148828 -0.454753,0.148828 -0.243912,0 -0.429948,-0.198437 -0.438216,-0.458887 h 0.921908 c 0,-0.128157 -0.0124,-0.318326 -0.124024,-0.479557 -0.09922,-0.14056 -0.268717,-0.194303 -0.405143,-0.194303 -0.343131,0 -0.607715,0.30179 -0.607715,0.657324 0,0.359668 0.28112,0.661458 0.65319,0.661458 0.161231,0 0.330729,-0.04961 0.471289,-0.136426 z M 79.912895,47.3021 c 0.06614,-0.223242 0.23151,-0.318327 0.37207,-0.318327 0.124023,0 0.305924,0.05788 0.359668,0.318327 z m 1.46761,0.186035 c 0,-0.30179 0.252181,-0.467155 0.500228,-0.467155 v -0.21084 c -0.235644,0.0041 -0.409277,0.11989 -0.520898,0.268718 v -0.260449 h -0.214974 v 1.269173 h 0.235644 z m 0,0"
       style="fill:#ffffff;fill-opacity:1;fill-rule:nonzero;stroke:none;stroke-width:0.352778"
       aria-label="Juliauser" />
    <path
       id="path7-3"
       d="m 100.27862,32.535171 c 0,-1.677483 -3.257075,-3.037321 -7.275005,-3.037321 -4.017924,0 -7.275012,1.359838 -7.275012,3.037321 0,1.677483 3.257088,3.037321 7.275012,3.037321 4.01793,0 7.275005,-1.359838 7.275005,-3.037321 z"
       style="fill:#999999;fill-opacity:1;fill-rule:nonzero;stroke:none;stroke-width:0.352778" />
    <path
       id="path8-6"
       d="m 92.669735,32.544345 c 0,-0.58291 -0.42581,-1.041797 -0.934306,-1.041797 -0.51263,0 -0.938444,0.458887 -0.938444,1.041797 0,0.58291 0.434082,1.025261 0.938444,1.025261 0.504362,0 0.934306,-0.446485 0.934306,-1.025261 z m -0.934306,0.826823 c -0.343131,0 -0.65319,-0.338997 -0.65319,-0.872298 0,-0.496094 0.314193,-0.802018 0.65319,-0.802018 0.334864,0 0.649056,0.305924 0.649056,0.802018 0,0.533301 -0.310058,0.872298 -0.649056,0.872298 z m 1.659846,-1.810742 h -0.28525 v 1.951302 h 0.28525 z m 1.72703,1.070736 v -0.186036 h -0.89711 v -0.682128 h 0.38861 c 0.0331,0 0.0661,0.0041 0.10335,0.0041 h 0.5333 V 31.56866 h -1.31051 v 1.943034 h 0.28525 v -0.880566 z m 0,0"
       style="fill:#ffffff;fill-opacity:1;fill-rule:nonzero;stroke:none;stroke-width:0.352778"
       aria-label="OIF" />
    <path
       id="path9-1"
       d="m 120.41533,30.387467 h -14.82295 c -0.38822,0 -0.70292,0.314706 -0.70292,0.702927 v 2.889554 c 0,0.388221 0.3147,0.702927 0.70292,0.702927 h 14.82295 c 0.38823,0 0.70293,-0.314706 0.70293,-0.702927 v -2.889554 c 0,-0.388221 -0.3147,-0.702927 -0.70293,-0.702927 z"
       style="fill:#005eaa;fill-opacity:1;fill-rule:nonzero;stroke:#000000;stroke-width:0.281167;stroke-linecap:butt;stroke-linejoin:miter;stroke-miterlimit:10;stroke-dasharray:1.05439, 1.05439;stroke-dashoffset:0;stroke-opacity:1" />
    <path
       id="path10-0"
       d="m 107.22285,31.560426 h -0.27699 v 1.521354 c 0,0.05788 0,0.30179 -0.34313,0.30179 -0.19844,0 -0.31833,-0.103352 -0.3762,-0.16123 l -0.0413,0.23151 c 0.15296,0.07028 0.33899,0.115756 0.51263,0.115756 0.29765,0 0.52503,-0.148829 0.52503,-0.475424 z m 1.55546,0.702799 h -0.24391 v 0.814421 c 0,0.227376 -0.19017,0.297656 -0.35554,0.297656 -0.2067,0 -0.22738,-0.05788 -0.22738,-0.186035 v -0.926042 h -0.24804 v 0.942578 c 0,0.248047 0.11162,0.334864 0.31006,0.334864 0.11162,0 0.35966,-0.02481 0.52917,-0.157097 v 0.128158 h 0.23564 z m 0.70693,-0.702799 h -0.23564 v 1.951302 h 0.23564 z m 0.73794,0.0248 h -0.28525 v 0.28112 h 0.28525 z m -0.0248,0.677995 h -0.23564 v 1.248503 h 0.23564 z m 1.43971,0.438216 c 0,-0.285254 -0.21911,-0.479557 -0.50023,-0.479557 -0.17777,0 -0.31006,0.03721 -0.46715,0.119889 l 0.0165,0.206706 c 0.0909,-0.06201 0.23151,-0.148828 0.45061,-0.148828 0.12403,0 0.25632,0.09509 0.25632,0.305924 v 0.111622 c -0.41755,0.0124 -0.82682,0.103352 -0.82682,0.363802 0,0.140559 0.0951,0.359668 0.34313,0.359668 0.11989,0 0.34313,-0.02481 0.49196,-0.136426 v 0.107487 h 0.23564 z m -0.24391,0.409278 c 0,0.05788 0,0.132291 -0.0992,0.190169 -0.0909,0.04961 -0.20257,0.05374 -0.23151,0.05374 -0.15297,0 -0.27286,-0.07028 -0.27286,-0.177767 0,-0.177766 0.47543,-0.198437 0.60359,-0.202571 z m 2.50113,-0.802015 c -0.19017,-0.07855 -0.33073,-0.08682 -0.43408,-0.08682 -0.0703,0 -0.49196,0 -0.49196,0.37207 0,0.132292 0.0703,0.206706 0.10749,0.239779 0.0992,0.09922 0.21911,0.119889 0.36793,0.148828 0.13229,0.02481 0.28112,0.05374 0.28112,0.190169 0,0.177767 -0.23151,0.177767 -0.27285,0.177767 -0.17777,0 -0.34726,-0.06615 -0.45889,-0.144694 l -0.0413,0.21084 c 0.0992,0.04547 0.26872,0.124024 0.50023,0.124024 0.12816,0 0.25218,-0.02067 0.35554,-0.09508 0.10335,-0.07855 0.13642,-0.202572 0.13642,-0.297656 0,-0.05374 -0.004,-0.161231 -0.11988,-0.268718 -0.10749,-0.09095 -0.20671,-0.111621 -0.34314,-0.136426 -0.16536,-0.03307 -0.29352,-0.05788 -0.29352,-0.181901 0,-0.16123 0.20257,-0.16123 0.24805,-0.16123 0.15709,0 0.28112,0.03721 0.42168,0.107487 z m 1.52549,0.587045 c 0,-0.372071 -0.29352,-0.673861 -0.66146,-0.673861 -0.3638,0 -0.66145,0.305925 -0.66145,0.673861 0,0.355534 0.29765,0.644922 0.66145,0.644922 0.36794,0 0.66146,-0.289388 0.66146,-0.644922 z m -0.66146,0.450618 c -0.22324,0 -0.41341,-0.165364 -0.41341,-0.479557 0,-0.318327 0.20671,-0.458887 0.41341,-0.458887 0.21084,0 0.41755,0.144694 0.41755,0.458887 0,0.318327 -0.19844,0.479557 -0.41755,0.479557 z m 1.2206,-1.785937 h -0.23564 v 1.951302 h 0.23564 z m 1.57303,0.702799 h -0.22324 c -0.38447,0.942578 -0.40101,1.016993 -0.41341,1.083138 h -0.004 c -0.0207,-0.111621 -0.0992,-0.305924 -0.18604,-0.525032 l -0.22737,-0.558106 h -0.23565 l 0.51677,1.248503 h 0.26045 z m 1.25264,0.942578 c -0.1571,0.111622 -0.33487,0.148829 -0.45475,0.148829 -0.24392,0 -0.42995,-0.198438 -0.43822,-0.458887 h 0.92191 c 0,-0.128158 -0.0124,-0.318327 -0.12403,-0.479557 -0.0992,-0.14056 -0.26871,-0.194304 -0.40514,-0.194304 -0.34313,0 -0.60771,0.301791 -0.60771,0.657324 0,0.359668 0.28112,0.661459 0.65319,0.661459 0.16123,0 0.33072,-0.04961 0.47128,-0.136426 z m -0.8723,-0.479557 c 0.0661,-0.223242 0.23151,-0.318327 0.37207,-0.318327 0.12402,0 0.30592,0.05788 0.35967,0.318327 z m 1.46865,0.186035 c 0,-0.30179 0.25218,-0.467155 0.50022,-0.467155 v -0.210839 c -0.23564,0.0041 -0.40927,0.119889 -0.52089,0.268717 v -0.260449 h -0.21498 v 1.269173 h 0.23565 z m 0,0"
       style="fill:#ffffff;fill-opacity:1;fill-rule:nonzero;stroke:none;stroke-width:0.352778"
       aria-label="Juliasolver" />
    <path
       id="path11-6"
       d="m 123.22465,15.264026 h -20.44159 c -0.38822,0 -0.70293,0.314706 -0.70293,0.702927 v 3.436288 c 0,0.388225 0.31471,0.702931 0.70293,0.702931 h 20.44159 c 0.38822,0 0.70293,-0.314706 0.70293,-0.702931 v -3.436288 c 0,-0.388221 -0.31471,-0.702927 -0.70293,-0.702927 z"
       style="fill:#005eaa;fill-opacity:1;fill-rule:nonzero;stroke:#000000;stroke-width:0.281167;stroke-linecap:butt;stroke-linejoin:miter;stroke-miterlimit:10;stroke-dasharray:1.05439, 1.05439;stroke-dashoffset:0;stroke-opacity:1" />
    <path
       id="path12-3"
       d="m 104.30519,17.586085 c 0.36381,0 0.68627,-0.256315 0.68627,-0.578776 0,-0.301791 -0.29766,-0.570508 -0.70694,-0.570508 h -0.75654 v 1.951302 h 0.28112 v -0.802018 z m -0.091,-0.98392 c 0.31833,0 0.5209,0.169499 0.5209,0.405144 0,0.23151 -0.19017,0.405143 -0.5209,0.405143 h -0.41341 v -0.810287 z m 2.27687,0.537435 h -0.22738 c -0.22737,0.537435 -0.38447,0.901237 -0.39687,1.070736 -0.004,-0.07855 -0.0537,-0.219108 -0.10336,-0.3514 -0.0455,-0.111621 -0.091,-0.223242 -0.14056,-0.334863 L 105.44518,17.1396 h -0.24392 l 0.58291,1.248503 c -0.0331,0.08268 -0.0909,0.21084 -0.10748,0.248047 -0.0579,0.115755 -0.0992,0.157096 -0.17364,0.157096 -0.0124,0 -0.11575,0 -0.23564,-0.04961 l 0.0165,0.194303 c 0.0248,0.0083 0.12816,0.02481 0.21497,0.02481 0.11163,0 0.21498,-0.04134 0.33487,-0.314193 z m 0.57464,0.177767 h 0.41341 V 17.1396 h -0.41341 v -0.355534 h -0.21911 V 17.1396 h -0.25218 v 0.177767 h 0.24391 v 0.711068 c 0,0.190169 0.0496,0.388607 0.25218,0.388607 0.20258,0 0.35554,-0.06615 0.44235,-0.103353 l -0.0496,-0.181901 c -0.091,0.06615 -0.19016,0.09095 -0.26871,0.09095 -0.11989,0 -0.14883,-0.115755 -0.14883,-0.243913 z m 1.85622,0.239779 c 0,-0.219108 -0.062,-0.446485 -0.40928,-0.446485 -0.24391,0 -0.37207,0.14056 -0.42581,0.202572 v -0.876432 h -0.23978 v 1.951302 h 0.24804 v -0.682129 c 0,-0.186035 0.0785,-0.409277 0.29353,-0.409277 0.28939,0 0.28939,0.198437 0.28939,0.276985 v 0.814421 h 0.24391 z m 1.64124,0.214974 c 0,-0.372071 -0.29352,-0.673861 -0.66145,-0.673861 -0.36381,0 -0.66146,0.305925 -0.66146,0.673861 0,0.355534 0.29765,0.644922 0.66146,0.644922 0.36793,0 0.66145,-0.289388 0.66145,-0.644922 z m -0.66145,0.450618 c -0.22325,0 -0.41342,-0.165364 -0.41342,-0.479557 0,-0.318327 0.20671,-0.458887 0.41342,-0.458887 0.21083,0 0.41754,0.144694 0.41754,0.458887 0,0.318327 -0.19844,0.479557 -0.41754,0.479557 z m 2.05672,-0.665592 c 0,-0.219108 -0.062,-0.446485 -0.40928,-0.446485 -0.16123,0 -0.31419,0.06615 -0.43822,0.214974 V 17.11893 h -0.22737 v 1.269173 h 0.24804 v -0.682129 c 0,-0.186035 0.0785,-0.409277 0.29353,-0.409277 0.28938,0 0.28938,0.198437 0.28938,0.276985 v 0.814421 h 0.24392 z m 2.25619,-0.37207 c -0.19017,-0.07855 -0.33073,-0.08682 -0.43408,-0.08682 -0.0703,0 -0.49196,0 -0.49196,0.37207 0,0.132292 0.0703,0.206706 0.10749,0.239779 0.0992,0.09922 0.2191,0.119889 0.36793,0.148828 0.1323,0.02481 0.28112,0.05374 0.28112,0.190169 0,0.177767 -0.23151,0.177767 -0.27285,0.177767 -0.17777,0 -0.34727,-0.06614 -0.45889,-0.144694 l -0.0413,0.21084 c 0.0992,0.04547 0.26872,0.124024 0.50023,0.124024 0.12816,0 0.25218,-0.02067 0.35554,-0.09508 0.10335,-0.07855 0.13642,-0.202572 0.13642,-0.297656 0,-0.05374 -0.004,-0.161231 -0.11989,-0.268718 -0.10748,-0.09095 -0.2067,-0.111621 -0.34313,-0.136425 -0.16537,-0.03307 -0.29352,-0.05788 -0.29352,-0.181902 0,-0.16123 0.20257,-0.16123 0.24804,-0.16123 0.1571,0 0.28113,0.03721 0.42169,0.107487 z m 1.52549,0.587044 c 0,-0.372071 -0.29352,-0.673861 -0.66146,-0.673861 -0.3638,0 -0.66146,0.305925 -0.66146,0.673861 0,0.355534 0.29766,0.644922 0.66146,0.644922 0.36794,0 0.66146,-0.289388 0.66146,-0.644922 z m -0.66146,0.450618 c -0.22324,0 -0.41341,-0.165364 -0.41341,-0.479557 0,-0.318327 0.20671,-0.458887 0.41341,-0.458887 0.21084,0 0.41755,0.144694 0.41755,0.458887 0,0.318327 -0.19844,0.479557 -0.41755,0.479557 z m 1.22163,-1.785937 h -0.23564 v 1.951302 h 0.23564 z m 1.572,0.702799 h -0.22324 c -0.38447,0.942578 -0.40101,1.016992 -0.41341,1.083138 h -0.004 c -0.0207,-0.111621 -0.0992,-0.305924 -0.18604,-0.525032 L 116.81813,17.1396 h -0.23564 l 0.51676,1.248503 h 0.26045 z m 1.25264,0.942578 c -0.1571,0.111621 -0.33487,0.148828 -0.45476,0.148828 -0.24391,0 -0.42994,-0.198437 -0.43821,-0.458886 h 0.92191 c 0,-0.128158 -0.0124,-0.318327 -0.12403,-0.479557 -0.0992,-0.14056 -0.26871,-0.194304 -0.40514,-0.194304 -0.34313,0 -0.60772,0.30179 -0.60772,0.657324 0,0.359668 0.28112,0.661459 0.65319,0.661459 0.16124,0 0.33073,-0.04961 0.4713,-0.136426 z m -0.8723,-0.479557 c 0.0662,-0.223242 0.23151,-0.318327 0.37207,-0.318327 0.12402,0 0.30592,0.05788 0.35967,0.318327 z m 1.46865,0.186035 c 0,-0.30179 0.25218,-0.467155 0.50022,-0.467155 v -0.21084 c -0.23564,0.0041 -0.40927,0.11989 -0.52089,0.268718 V 17.11893 h -0.21498 v 1.269173 h 0.23565 z m 2.3337,0.384473 c -0.0331,0 -0.0661,0 -0.0992,0 h -0.32246 l 0.43822,-0.384473 c 0.0496,-0.04547 0.18603,-0.148828 0.23978,-0.194303 0.12402,-0.111621 0.28938,-0.256315 0.28938,-0.500228 0,-0.318327 -0.23564,-0.607715 -0.63665,-0.607715 -0.29765,0 -0.48369,0.157097 -0.57877,0.446485 l 0.13229,0.165364 c 0.0661,-0.235644 0.16123,-0.417545 0.40514,-0.417545 0.23978,0 0.41755,0.165364 0.41755,0.417545 0,0.231511 -0.13643,0.363802 -0.30593,0.525033 -0.0579,0.05788 -0.2067,0.181901 -0.26872,0.239778 -0.0786,0.07441 -0.27285,0.260449 -0.35553,0.330729 v 0.194304 h 1.19062 v -0.214974 z m 0,0"
       style="fill:#ffffff;fill-opacity:1;fill-rule:nonzero;stroke:none;stroke-width:0.352778"
       aria-label="Pythonsolver2" />
    <path
       id="path13-2"
       d="m 123.22465,0.14058413 h -20.44159 c -0.38822,0 -0.70293,0.31470951 -0.70293,0.70292733 V 4.2798032 c 0,0.3882249 0.31471,0.7029273 0.70293,0.7029273 h 20.44159 c 0.38822,0 0.70293,-0.3147024 0.70293,-0.7029273 V 0.84351146 c 0,-0.38821782 -0.31471,-0.70292733 -0.70293,-0.70292733 z"
       style="fill:#005eaa;fill-opacity:1;fill-rule:nonzero;stroke:#000000;stroke-width:0.281167;stroke-linecap:butt;stroke-linejoin:miter;stroke-miterlimit:10;stroke-dasharray:1.05439, 1.05439;stroke-dashoffset:0;stroke-opacity:1" />
    <path
       id="path14-0"
       d="m 104.30519,2.4624596 c 0.36381,0 0.68627,-0.2563151 0.68627,-0.578776 0,-0.3017904 -0.29766,-0.5705078 -0.70694,-0.5705078 h -0.75654 v 1.951302 h 0.28112 V 2.4624596 Z m -0.091,-0.9839192 c 0.31833,0 0.5209,0.1694987 0.5209,0.4051432 0,0.2315104 -0.19017,0.4051432 -0.5209,0.4051432 h -0.41341 V 1.4785404 Z m 2.27687,0.5374348 h -0.22738 c -0.22737,0.5374349 -0.38447,0.901237 -0.39687,1.0707357 -0.004,-0.078548 -0.0537,-0.2191081 -0.10336,-0.3513998 -0.0455,-0.111621 -0.091,-0.2232421 -0.14056,-0.3348632 l -0.17776,-0.3844727 h -0.24392 l 0.58291,1.2485026 c -0.0331,0.082682 -0.0909,0.2108398 -0.10748,0.2480469 -0.0579,0.1157551 -0.0992,0.1570963 -0.17364,0.1570963 -0.0124,0 -0.11575,0 -0.23564,-0.049609 l 0.0165,0.1943034 c 0.0248,0.00827 0.12816,0.024804 0.21497,0.024804 0.11163,0 0.21498,-0.041341 0.33487,-0.3141927 z m 0.57464,0.177767 h 0.41341 V 2.0159752 H 107.0657 V 1.6604414 h -0.21911 v 0.3555338 h -0.25218 v 0.177767 h 0.24391 v 0.7110676 c 0,0.1901693 0.0496,0.3886068 0.25218,0.3886068 0.20258,0 0.35554,-0.066146 0.44235,-0.1033529 l -0.0496,-0.181901 c -0.091,0.066146 -0.19016,0.09095 -0.26871,0.09095 -0.11989,0 -0.14883,-0.1157552 -0.14883,-0.2439127 z m 1.85622,0.2397786 c 0,-0.2191081 -0.062,-0.4464843 -0.40928,-0.4464843 -0.24391,0 -0.37207,0.1405598 -0.42581,0.2025715 V 1.3131758 h -0.23978 v 1.951302 h 0.24804 V 2.5823489 c 0,-0.1860351 0.0785,-0.4092773 0.29353,-0.4092773 0.28939,0 0.28939,0.1984375 0.28939,0.2769857 v 0.8144205 h 0.24391 z m 1.64124,0.214974 c 0,-0.3720703 -0.29352,-0.6738607 -0.66145,-0.6738607 -0.36381,0 -0.66146,0.3059245 -0.66146,0.6738607 0,0.3555338 0.29765,0.6449218 0.66146,0.6449218 0.36793,0 0.66145,-0.289388 0.66145,-0.6449218 z m -0.66145,0.4506184 c -0.22325,0 -0.41342,-0.1653646 -0.41342,-0.4795573 0,-0.3183268 0.20671,-0.4588866 0.41342,-0.4588866 0.21083,0 0.41754,0.1446939 0.41754,0.4588866 0,0.3183269 -0.19844,0.4795573 -0.41754,0.4795573 z m 2.05672,-0.6655924 c 0,-0.2191081 -0.062,-0.4464843 -0.40928,-0.4464843 -0.16123,0 -0.31419,0.066146 -0.43822,0.2149739 V 1.9953047 h -0.22737 v 1.2691731 h 0.24804 V 2.5823489 c 0,-0.1860351 0.0785,-0.4092773 0.29353,-0.4092773 0.28938,0 0.28938,0.1984375 0.28938,0.2769857 v 0.8144205 h 0.24392 z m 2.25619,-0.3720703 c -0.19017,-0.078548 -0.33073,-0.086816 -0.43408,-0.086816 -0.0703,0 -0.49196,0 -0.49196,0.3720703 0,0.1322916 0.0703,0.2067057 0.10749,0.2397786 0.0992,0.099219 0.2191,0.1198894 0.36793,0.1488281 0.1323,0.024804 0.28112,0.053743 0.28112,0.1901693 0,0.1777669 -0.23151,0.1777669 -0.27285,0.1777669 -0.17777,0 -0.34727,-0.066146 -0.45889,-0.144694 l -0.0413,0.2108399 c 0.0992,0.045475 0.26872,0.1240234 0.50023,0.1240234 0.12816,0 0.25218,-0.020671 0.35554,-0.095085 0.10335,-0.078548 0.13642,-0.2025716 0.13642,-0.2976563 0,-0.053743 -0.004,-0.1612304 -0.11989,-0.2687174 -0.10748,-0.09095 -0.2067,-0.1116211 -0.34313,-0.1364258 -0.16537,-0.033073 -0.29352,-0.057878 -0.29352,-0.181901 0,-0.1612305 0.20257,-0.1612305 0.24804,-0.1612305 0.1571,0 0.28113,0.037207 0.42169,0.107487 z m 1.52549,0.5870443 c 0,-0.3720703 -0.29352,-0.6738607 -0.66146,-0.6738607 -0.3638,0 -0.66146,0.3059245 -0.66146,0.6738607 0,0.3555338 0.29766,0.6449218 0.66146,0.6449218 0.36794,0 0.66146,-0.289388 0.66146,-0.6449218 z m -0.66146,0.4506184 c -0.22324,0 -0.41341,-0.1653646 -0.41341,-0.4795573 0,-0.3183268 0.20671,-0.4588866 0.41341,-0.4588866 0.21084,0 0.41755,0.1446939 0.41755,0.4588866 0,0.3183269 -0.19844,0.4795573 -0.41755,0.4795573 z m 1.22163,-1.7859374 h -0.23564 v 1.951302 h 0.23564 z m 1.572,0.7027994 h -0.22324 c -0.38447,0.9425781 -0.40101,1.0169922 -0.41341,1.083138 h -0.004 c -0.0207,-0.1116211 -0.0993,-0.3059245 -0.18607,-0.5250325 l -0.22748,-0.5581055 h -0.23564 l 0.51676,1.2485026 h 0.26045 z m 1.25264,0.9425781 c -0.1571,0.1116211 -0.33487,0.1488281 -0.45476,0.1488281 -0.24391,0 -0.42994,-0.1984375 -0.43821,-0.4588866 h 0.92191 c 0,-0.1281576 -0.0124,-0.3183269 -0.12403,-0.4795573 -0.0992,-0.1405599 -0.26871,-0.1943034 -0.40514,-0.1943034 -0.34313,0 -0.60772,0.3017904 -0.60772,0.6573242 0,0.3596679 0.28112,0.6614583 0.65319,0.6614583 0.16124,0 0.33073,-0.049609 0.4713,-0.1364258 z m -0.8723,-0.4795573 c 0.0662,-0.2232421 0.23151,-0.3183267 0.37207,-0.3183267 0.12402,0 0.30592,0.057878 0.35967,0.3183267 z m 1.46865,0.1860352 c 0,-0.3017904 0.25218,-0.4671549 0.50022,-0.4671549 V 1.9870365 c -0.23564,0.00413 -0.40927,0.1198893 -0.52089,0.2687174 V 1.9953047 h -0.21498 v 1.2691731 h 0.23565 z m 2.44119,-1.302246 h -0.062 c -0.1819,0.1653645 -0.41341,0.1777669 -0.57878,0.1860351 v 0.1736328 c 0.10749,0 0.24805,-0.00827 0.38861,-0.062012 v 1.4262695 h -0.37207 v 0.1777669 h 1.00046 V 3.0867109 h -0.37621 z m 0,0"
       style="fill:#ffffff;fill-opacity:1;fill-rule:nonzero;stroke:none;stroke-width:0.352778"
       aria-label="Pythonsolver1" />
    <path
       id="path15-6"
       d="M 119.70752,44.96417 H 106.3002 c -0.38822,0 -0.70293,0.314706 -0.70293,0.702931 v 2.88956 c 0,0.388222 0.31471,0.702927 0.70293,0.702927 h 13.40732 c 0.38822,0 0.70293,-0.314705 0.70293,-0.702927 v -2.88956 c 0,-0.388225 -0.31471,-0.702931 -0.70293,-0.702931 z"
       style="fill:#005eaa;fill-opacity:1;fill-rule:nonzero;stroke:#000000;stroke-width:0.281167;stroke-linecap:butt;stroke-linejoin:miter;stroke-miterlimit:10;stroke-dasharray:1.05439, 1.05439;stroke-dashoffset:0;stroke-opacity:1" />
    <path
       id="path16-1"
       d="m 108.50959,47.74445 c -0.19844,0.119889 -0.28526,0.173633 -0.56638,0.173633 -0.43821,0 -0.7028,-0.405143 -0.7028,-0.810286 0,-0.417546 0.28939,-0.806153 0.7028,-0.806153 0.18191,0 0.37621,0.05788 0.50437,0.157097 l 0.0455,-0.256316 c -0.19844,-0.07441 -0.35554,-0.09508 -0.55811,-0.09508 -0.5581,0 -0.97565,0.458887 -0.97565,1.000456 0,0.578776 0.44235,1.008723 0.99219,1.008723 0.27285,0 0.3886,-0.05788 0.57464,-0.157096 z m 2.18798,-0.859896 c -0.19017,-0.07855 -0.33073,-0.08682 -0.43408,-0.08682 -0.0703,0 -0.49196,0 -0.49196,0.37207 0,0.132292 0.0703,0.206706 0.10749,0.239779 0.0992,0.09922 0.2191,0.119889 0.36793,0.148828 0.13229,0.02481 0.28112,0.05374 0.28112,0.190169 0,0.177767 -0.23151,0.177767 -0.27285,0.177767 -0.17777,0 -0.34726,-0.06615 -0.45889,-0.144694 l -0.0413,0.21084 c 0.0992,0.04548 0.26872,0.124023 0.50023,0.124023 0.12816,0 0.25218,-0.02067 0.35554,-0.09508 0.10335,-0.07855 0.13642,-0.202572 0.13642,-0.297656 0,-0.05374 -0.004,-0.161231 -0.11989,-0.268718 -0.10748,-0.09095 -0.2067,-0.111621 -0.34313,-0.136426 -0.16536,-0.03307 -0.29352,-0.05788 -0.29352,-0.181901 0,-0.16123 0.20257,-0.16123 0.24805,-0.16123 0.15709,0 0.28112,0.03721 0.42168,0.107487 z m 1.52549,0.587045 c 0,-0.372071 -0.29352,-0.673861 -0.66146,-0.673861 -0.3638,0 -0.66146,0.305924 -0.66146,0.673861 0,0.355533 0.29766,0.644921 0.66146,0.644921 0.36794,0 0.66146,-0.289388 0.66146,-0.644921 z m -0.66146,0.450618 c -0.22324,0 -0.41341,-0.165365 -0.41341,-0.479557 0,-0.318327 0.20671,-0.458887 0.41341,-0.458887 0.21084,0 0.41755,0.144694 0.41755,0.458887 0,0.318327 -0.19844,0.479557 -0.41755,0.479557 z m 1.22163,-1.785937 h -0.23564 v 1.951302 h 0.23564 z m 1.572,0.702799 h -0.22324 c -0.38448,0.942578 -0.40101,1.016992 -0.41341,1.083138 h -0.004 c -0.0207,-0.111621 -0.0992,-0.305924 -0.18604,-0.525032 l -0.22738,-0.558106 h -0.23564 l 0.51676,1.248503 h 0.26046 z m 1.25264,0.942578 c -0.1571,0.111621 -0.33486,0.148828 -0.45475,0.148828 -0.24392,0 -0.42995,-0.198437 -0.43822,-0.458886 h 0.92191 c 0,-0.128158 -0.0124,-0.318327 -0.12403,-0.479558 -0.0992,-0.14056 -0.26871,-0.194303 -0.40514,-0.194303 -0.34313,0 -0.60771,0.30179 -0.60771,0.657324 0,0.359668 0.28112,0.661458 0.65319,0.661458 0.16123,0 0.33072,-0.04961 0.47128,-0.136425 z m -0.8723,-0.479557 c 0.0662,-0.223242 0.23151,-0.318327 0.37207,-0.318327 0.12402,0 0.30592,0.05788 0.35967,0.318327 z m 1.46864,0.186035 c 0,-0.30179 0.25219,-0.467155 0.50023,-0.467155 v -0.21084 c -0.23564,0.0041 -0.40928,0.11989 -0.5209,0.268718 v -0.260449 h -0.21497 v 1.269173 h 0.23564 z m 2.4412,-1.302246 h -0.062 c -0.1819,0.165365 -0.41341,0.177767 -0.57878,0.186035 v 0.173633 c 0.10749,0 0.24805,-0.0083 0.38861,-0.06201 v 1.42627 h -0.37207 v 0.177767 h 1.00045 v -0.177767 h -0.3762 z m 0,0"
       style="fill:#ffffff;fill-opacity:1;fill-rule:nonzero;stroke:none;stroke-width:0.352778"
       aria-label="Csolver1" />
    <path
       id="path17-5"
       d="M 119.70752,59.54088 H 106.3002 c -0.38822,0 -0.70293,0.31471 -0.70293,0.702927 v 2.889564 c 0,0.388225 0.31471,0.702931 0.70293,0.702931 h 13.40732 c 0.38822,0 0.70293,-0.314706 0.70293,-0.702931 v -2.889564 c 0,-0.388217 -0.31471,-0.702927 -0.70293,-0.702927 z"
       style="fill:#005eaa;fill-opacity:1;fill-rule:nonzero;stroke:#000000;stroke-width:0.281167;stroke-linecap:butt;stroke-linejoin:miter;stroke-miterlimit:10;stroke-dasharray:1.05439, 1.05439;stroke-dashoffset:0;stroke-opacity:1" />
    <path
       id="path18-5"
       d="m 108.50959,62.321337 c -0.19844,0.119889 -0.28526,0.173633 -0.56638,0.173633 -0.43821,0 -0.7028,-0.405143 -0.7028,-0.810286 0,-0.417546 0.28939,-0.806153 0.7028,-0.806153 0.18191,0 0.37621,0.05788 0.50437,0.157097 l 0.0455,-0.256316 c -0.19844,-0.07441 -0.35554,-0.09508 -0.55811,-0.09508 -0.5581,0 -0.97565,0.458887 -0.97565,1.000456 0,0.578776 0.44235,1.008723 0.99219,1.008723 0.27285,0 0.3886,-0.05788 0.57464,-0.157096 z m 2.18798,-0.859896 c -0.19017,-0.07855 -0.33073,-0.08682 -0.43408,-0.08682 -0.0703,0 -0.49196,0 -0.49196,0.37207 0,0.132292 0.0703,0.206706 0.10749,0.239779 0.0992,0.09922 0.2191,0.119889 0.36793,0.148828 0.13229,0.02481 0.28112,0.05374 0.28112,0.190169 0,0.177767 -0.23151,0.177767 -0.27285,0.177767 -0.17777,0 -0.34726,-0.06615 -0.45889,-0.144694 l -0.0413,0.21084 c 0.0992,0.04548 0.26872,0.124023 0.50023,0.124023 0.12816,0 0.25218,-0.02067 0.35554,-0.09508 0.10335,-0.07855 0.13642,-0.202572 0.13642,-0.297656 0,-0.05374 -0.004,-0.161231 -0.11989,-0.268718 -0.10748,-0.09095 -0.2067,-0.111621 -0.34313,-0.136426 -0.16536,-0.03307 -0.29352,-0.05788 -0.29352,-0.181901 0,-0.16123 0.20257,-0.16123 0.24805,-0.16123 0.15709,0 0.28112,0.03721 0.42168,0.107487 z m 1.52549,0.587045 c 0,-0.372071 -0.29352,-0.673861 -0.66146,-0.673861 -0.3638,0 -0.66146,0.305924 -0.66146,0.673861 0,0.355533 0.29766,0.644921 0.66146,0.644921 0.36794,0 0.66146,-0.289388 0.66146,-0.644921 z m -0.66146,0.450618 c -0.22324,0 -0.41341,-0.165364 -0.41341,-0.479557 0,-0.318327 0.20671,-0.458887 0.41341,-0.458887 0.21084,0 0.41755,0.144694 0.41755,0.458887 0,0.318327 -0.19844,0.479557 -0.41755,0.479557 z m 1.22163,-1.785937 h -0.23564 v 1.951302 h 0.23564 z m 1.572,0.702799 h -0.22324 c -0.38448,0.942578 -0.40101,1.016992 -0.41341,1.083138 h -0.004 c -0.0207,-0.111621 -0.0992,-0.305924 -0.18604,-0.525032 l -0.22738,-0.558106 h -0.23564 l 0.51676,1.248503 h 0.26046 z m 1.25264,0.942578 c -0.1571,0.111621 -0.33486,0.148828 -0.45475,0.148828 -0.24392,0 -0.42995,-0.198437 -0.43822,-0.458886 h 0.92191 c 0,-0.128158 -0.0124,-0.318327 -0.12403,-0.479558 -0.0992,-0.14056 -0.26871,-0.194303 -0.40514,-0.194303 -0.34313,0 -0.60771,0.30179 -0.60771,0.657324 0,0.359668 0.28112,0.661458 0.65319,0.661458 0.16123,0 0.33072,-0.04961 0.47128,-0.136425 z m -0.8723,-0.479557 c 0.0662,-0.223242 0.23151,-0.318327 0.37207,-0.318327 0.12402,0 0.30592,0.05788 0.35967,0.318327 z m 1.46864,0.186035 c 0,-0.30179 0.25219,-0.467155 0.50023,-0.467155 v -0.21084 c -0.23564,0.0041 -0.40928,0.11989 -0.5209,0.268718 v -0.260449 h -0.21497 v 1.269173 h 0.23564 z m 2.33371,0.384473 c -0.0331,0 -0.0661,0 -0.0992,0 h -0.32246 l 0.43822,-0.384473 c 0.0496,-0.04547 0.18603,-0.148828 0.23977,-0.194303 0.12403,-0.111621 0.2894,-0.256315 0.2894,-0.500228 0,-0.318327 -0.23565,-0.607715 -0.63666,-0.607715 -0.29766,0 -0.48369,0.157096 -0.57878,0.446484 l 0.13229,0.165365 c 0.0662,-0.235645 0.16124,-0.417546 0.40515,-0.417546 0.23978,0 0.41754,0.165365 0.41754,0.417546 0,0.23151 -0.13642,0.363802 -0.30592,0.525033 -0.0579,0.05788 -0.20671,0.181901 -0.26872,0.239778 -0.0786,0.07441 -0.27285,0.260449 -0.35553,0.330729 v 0.194304 h 1.19063 v -0.214974 z m 0,0"
       style="fill:#ffffff;fill-opacity:1;fill-rule:nonzero;stroke:none;stroke-width:0.352778"
       aria-label="Csolver2" />
    <path
       id="path19-4"
       d="M 69.491826,2.4045821 V 1.4785405 h 0.640788 c 0.355534,0 0.417546,0.2769857 0.417546,0.4382161 0,0.2728516 -0.169499,0.4878255 -0.508496,0.4878255 z m 0.950847,0.062012 c 0.380338,-0.066146 0.607714,-0.2769857 0.607714,-0.5498373 0,-0.3224609 -0.305924,-0.6035807 -0.872298,-0.6035807 H 68.652601 V 1.4785407 H 69.03294 V 3.558 h -0.380339 v 0.1653646 h 1.632975 c 0.58291,0 0.876432,-0.3100586 0.876432,-0.65319 0,-0.3389974 -0.30179,-0.574642 -0.719335,-0.6035805 z M 70.140882,3.558 H 69.491826 V 2.5327397 h 0.682129 c 0.07028,0 0.235645,0 0.355534,0.1488281 0.115755,0.1488281 0.115755,0.3472656 0.115755,0.3844726 0,0.041341 0,0.4919596 -0.504362,0.4919596 z m 0,0"
       style="fill:#000000;fill-opacity:1;fill-rule:nonzero;stroke:none;stroke-width:0.352778"
       aria-label="B" />
    <path
       id="path20-7"
       d="m 78.934516,20.246757 9.71085,8.481653"
       style="fill:none;stroke:#000000;stroke-width:0.281167;stroke-linecap:butt;stroke-linejoin:miter;stroke-miterlimit:10;stroke-dasharray:none;stroke-opacity:1" />
    <path
       id="path21-6"
       d="m 89.435899,29.418862 -0.739071,-1.381137 0.0015,0.736914 -0.730413,0.09767 z"
       style="fill:#000000;fill-opacity:1;fill-rule:nonzero;stroke:#000000;stroke-width:0.281156;stroke-linecap:butt;stroke-linejoin:miter;stroke-miterlimit:10;stroke-dasharray:none;stroke-opacity:1" />
    <path
       id="path22-5"
       d="m 81.415997,32.535171 h 2.721981"
       style="fill:none;stroke:#000000;stroke-width:0.281167;stroke-linecap:butt;stroke-linejoin:miter;stroke-miterlimit:10;stroke-dasharray:none;stroke-opacity:1" />
    <path
       id="path23-6"
       d="m 85.187629,32.535171 -1.465252,-0.554073 0.485892,0.554073 -0.485892,0.554073 z"
       style="fill:#000000;fill-opacity:1;fill-rule:nonzero;stroke:#000000;stroke-width:0.281167;stroke-linecap:butt;stroke-linejoin:miter;stroke-miterlimit:10;stroke-dasharray:none;stroke-opacity:1" />
    <path
       id="path24-9"
       d="M 78.670857,44.823585 88.587684,36.32139"
       style="fill:none;stroke:#000000;stroke-width:0.281167;stroke-linecap:butt;stroke-linejoin:miter;stroke-miterlimit:10;stroke-dasharray:none;stroke-opacity:1" />
    <path
       id="path25-3"
       d="m 89.384521,35.638219 -1.472955,0.533055 0.729483,0.104371 -0.0082,0.736866 z"
       style="fill:#000000;fill-opacity:1;fill-rule:nonzero;stroke:#000000;stroke-width:0.281155;stroke-linecap:butt;stroke-linejoin:miter;stroke-miterlimit:10;stroke-dasharray:none;stroke-opacity:1" />
    <path
       id="path26-7"
       d="M 94.029575,29.387914 101.49016,6.5019362"
       style="fill:none;stroke:#000000;stroke-width:0.281167;stroke-linecap:butt;stroke-linejoin:miter;stroke-miterlimit:10;stroke-dasharray:none;stroke-opacity:1" />
    <path
       id="path27-4"
       d="m 101.81546,5.5039973 -0.98089,1.2213553 0.67737,-0.2902381 0.37619,0.6336746 z"
       style="fill:#000000;fill-opacity:1;fill-rule:nonzero;stroke:#000000;stroke-width:0.281161;stroke-linecap:butt;stroke-linejoin:miter;stroke-miterlimit:10;stroke-dasharray:none;stroke-opacity:1" />
    <path
       id="path28-5"
       d="M 94.855135,29.458138 101.19192,18.92751"
       style="fill:none;stroke:#000000;stroke-width:0.281167;stroke-linecap:butt;stroke-linejoin:miter;stroke-miterlimit:10;stroke-dasharray:none;stroke-opacity:1" />
    <path
       id="path29-2"
       d="m 101.73312,18.028159 -1.23022,0.969763 0.72527,-0.130637 0.22421,0.701997 z"
       style="fill:#000000;fill-opacity:1;fill-rule:nonzero;stroke:#000000;stroke-width:0.281163;stroke-linecap:butt;stroke-linejoin:miter;stroke-miterlimit:10;stroke-dasharray:none;stroke-opacity:1" />
    <path
       id="path30-5"
       d="m 100.4192,32.535171 h 2.87963"
       style="fill:none;stroke:#000000;stroke-width:0.281167;stroke-linecap:butt;stroke-linejoin:miter;stroke-miterlimit:10;stroke-dasharray:none;stroke-opacity:1" />
    <path
       id="path31-4"
       d="m 104.34848,32.535171 -1.46525,-0.554073 0.48589,0.554073 -0.48589,0.554073 z"
       style="fill:#000000;fill-opacity:1;fill-rule:nonzero;stroke:#000000;stroke-width:0.281167;stroke-linecap:butt;stroke-linejoin:miter;stroke-miterlimit:10;stroke-dasharray:none;stroke-opacity:1" />
    <path
       id="path32-7"
       d="m 95.553065,35.519255 8.961795,10.490206"
       style="fill:none;stroke:#000000;stroke-width:0.281167;stroke-linecap:butt;stroke-linejoin:miter;stroke-miterlimit:10;stroke-dasharray:none;stroke-opacity:1" />
    <path
       id="path33-4"
       d="m 105.19662,46.807478 -0.53046,-1.473868 -0.10565,0.72929 -0.73684,-0.0095 z"
       style="fill:#000000;fill-opacity:1;fill-rule:nonzero;stroke:#000000;stroke-width:0.281151;stroke-linecap:butt;stroke-linejoin:miter;stroke-miterlimit:10;stroke-dasharray:none;stroke-opacity:1" />
    <path
       id="path34-4"
       d="M 94.448345,35.652022 104.84688,58.084783"
       style="fill:none;stroke:#000000;stroke-width:0.281167;stroke-linecap:butt;stroke-linejoin:miter;stroke-miterlimit:10;stroke-dasharray:none;stroke-opacity:1" />
    <path
       id="path35-3"
       d="m 105.28831,59.037064 -0.11354,-1.562335 -0.29833,0.67383 -0.70701,-0.2078 z"
       style="fill:#000000;fill-opacity:1;fill-rule:nonzero;stroke:#000000;stroke-width:0.281157;stroke-linecap:butt;stroke-linejoin:miter;stroke-miterlimit:10;stroke-dasharray:none;stroke-opacity:1" />
  </g>
</svg>
