<?xml version="1.0" encoding="UTF-8" standalone="no"?>
<!-- Created with Inkscape (http://www.inkscape.org/) -->

<svg
   version="1.1"
   id="svg228"
   width="500"
   height="500"
   viewBox="0 0 500 500"
   sodipodi:docname="oif_logo_with_new_i.svg"
   inkscape:version="1.2.2 (b0a8486541, 2022-12-01)"
   xmlns:inkscape="http://www.inkscape.org/namespaces/inkscape"
   xmlns:sodipodi="http://sodipodi.sourceforge.net/DTD/sodipodi-0.dtd"
   xmlns="http://www.w3.org/2000/svg"
   xmlns:svg="http://www.w3.org/2000/svg">
  <defs
     id="defs232">
    <inkscape:path-effect
       effect="offset"
       id="path-effect4233"
       is_visible="true"
       lpeversion="1.2"
       linejoin_type="miter"
       unit="mm"
       offset="-0.2"
       miter_limit="4"
       attempt_force_join="false"
       update_on_knot_move="true" />
    <inkscape:path-effect
       effect="offset"
       id="path-effect1359"
       is_visible="true"
       lpeversion="1.2"
       linejoin_type="miter"
       unit="mm"
       offset="0.08"
       miter_limit="4"
       attempt_force_join="false"
       update_on_knot_move="true" />
    <inkscape:path-effect
       effect="offset"
       id="path-effect4233-3"
       is_visible="true"
       lpeversion="1.2"
       linejoin_type="miter"
       unit="mm"
       offset="-0.2"
       miter_limit="4"
       attempt_force_join="false"
       update_on_knot_move="true" />
  </defs>
  <sodipodi:namedview
     id="namedview230"
     pagecolor="#ffffff"
     bordercolor="#000000"
     borderopacity="0.25"
     inkscape:showpageshadow="2"
     inkscape:pageopacity="0.0"
     inkscape:pagecheckerboard="0"
     inkscape:deskcolor="#d1d1d1"
     showgrid="false"
     inkscape:zoom="0.70710678"
     inkscape:cx="21.92031"
     inkscape:cy="277.18586"
     inkscape:window-width="1916"
     inkscape:window-height="1177"
     inkscape:window-x="0"
     inkscape:window-y="19"
     inkscape:window-maximized="1"
     inkscape:current-layer="layer1" />
  <g
     inkscape:groupmode="layer"
     inkscape:label="Image"
     id="g234" />
  <g
     inkscape:groupmode="layer"
     id="layer1"
     inkscape:label="Image 1">
    <path
       id="rect996"
       style="display:inline;fill:#005eaa;fill-opacity:1;stroke-width:1.88976"
       d="M 237.76758 247.19531 A 34.824387 34.601524 0 0 1 218.09961 253.3125 A 34.824387 34.601524 0 0 1 198.90039 247.54492 L 198.90039 319.71094 L 198.90039 355.13086 L 198.90039 361.13086 A 138.31918 138.31918 0 0 0 218.62305 362.90234 A 138.31918 138.31918 0 0 0 237.76758 361.3125 L 237.76758 355.3125 L 237.76758 319.71094 L 237.76758 247.19531 z " />
    <path
       id="path814-3"
       style="display:inline;fill:#ce652a;fill-opacity:1;stroke-width:1.88976"
       d="m 218.09978,183.796 a 35.140672,34.915785 0 0 0 -35.1405,34.91582 35.140672,34.915785 0 0 0 35.1405,34.91583 35.140672,34.915785 0 0 0 35.1405,-34.91583 35.140672,34.915785 0 0 0 -35.1405,-34.91582 z m 0.4868,8.32888 a 26.757455,26.586215 0 0 1 26.75645,26.58694 26.757455,26.586215 0 0 1 -26.75645,26.58696 26.757455,26.586215 0 0 1 -26.75842,-26.58696 26.757455,26.586215 0 0 1 26.75842,-26.58694 z" />
    <path
       id="path1214"
       style="display:inline;fill:#ce652a;fill-opacity:1;stroke-width:1.88976"
       d="M 198.90039 64.693359 L 198.90039 81.992188 L 198.90039 100.58203 L 198.90039 189.87695 A 34.824387 34.601524 0 0 1 218.09961 184.10938 A 34.824387 34.601524 0 0 1 237.76758 190.16602 L 237.76758 100.58203 L 237.76758 81.941406 L 237.76758 64.693359 L 198.90039 64.693359 z M 58.902344 198.99219 L 58.902344 237.86133 L 81.867188 237.86133 L 100.22852 237.86133 L 189.13672 237.86133 A 34.824387 34.601524 0 0 1 183.27539 218.71094 A 34.824387 34.601524 0 0 1 189.56445 198.99219 L 100.22852 198.99219 L 82.234375 198.99219 L 58.902344 198.99219 z M 246.70508 198.99219 A 34.824387 34.601524 0 0 1 252.92383 218.71094 A 34.824387 34.601524 0 0 1 247.0625 237.86133 L 322.03516 237.86133 L 355.20312 237.86133 L 369.32031 237.86133 L 369.32031 198.99219 L 355.13281 198.99219 L 322.03516 198.99219 L 246.70508 198.99219 z " />
    <path
       id="path2783"
       style="display:inline;fill:#005da9;stroke-width:1"
       d="M 399.09961 319.58008 L 396.58008 325.23242 C 393.39586 332.3737 393.1846 333.58403 394.01562 339.00195 C 394.30933 340.91807 394.57064 342.90247 394.06055 343.38477 C 393.72883 343.69832 390.85178 344.50811 387.64258 345.35938 C 384.43473 346.21025 381.52715 346.98935 381.28516 347.06055 C 380.12548 347.4018 379.52446 346.0217 378.41992 343.27344 C 376.33184 338.07797 375.42958 336.99949 369.58203 332.82617 C 366.88284 330.8998 364.50237 329.24407 364.33594 329.12891 C 364.33394 329.12991 364.33208 329.13019 364.33008 329.13086 C 364.31078 329.13696 364.28948 329.14534 364.26758 329.15234 C 364.11764 329.20329 363.92581 329.27921 363.69336 329.38281 C 363.10762 329.64389 362.34072 330.04132 361.50586 330.5293 C 359.3383 331.79624 358.88281 332.29492 358.88281 332.29492 C 358.88646 332.50928 359.16137 335.61942 359.49219 338.9375 C 360.19444 345.98057 360.64996 347.19511 364.1875 351.64648 L 366.83789 354.98047 L 361.59375 360.23242 C 359.23075 362.59963 357.20697 364.56239 356.63477 365.00977 C 356.57119 365.05947 356.52827 365.23242 356.07031 365.23242 C 355.58112 365.23242 354.15511 364.07846 352.66211 362.87305 C 348.52352 359.5316 347.15284 359.00918 340.71094 358.40039 C 337.68351 358.11429 334.68264 357.80426 333.97266 357.69727 L 333.28516 357.59375 L 331.79102 360.18164 C 331.31759 361.00195 330.91388 361.78003 330.63672 362.38477 C 330.52654 362.62516 330.44096 362.82854 330.38086 362.99023 C 330.37196 363.01413 330.36347 363.03719 330.35547 363.05859 C 330.34917 363.07639 330.34289 363.09348 330.33789 363.10938 C 330.43455 363.27979 332.03582 365.63963 334.01953 368.41602 C 338.2135 374.28576 339.11295 375.036 344.34375 377.15039 C 346.71808 378.11014 348.20952 378.79504 348.19922 379.77344 C 348.19089 380.61557 345.03835 392.40111 344.5293 392.91016 C 344.05674 393.38284 341.98306 393.10556 339.91992 392.81055 C 334.39051 392.01984 333.59966 392.16082 326.62695 395.32812 L 321.02539 397.87305 L 320.94336 401.0625 L 320.86328 404.2207 L 326.49805 406.76758 C 332.11554 409.3049 332.58965 409.47129 334.99609 409.62109 C 336.56649 409.71887 338.75796 409.58718 340.64648 409.27734 C 342.21498 409.02002 343.51483 408.82946 344.00977 408.85156 C 344.06476 408.85402 344.32787 408.84311 344.57031 409.08594 C 344.8489 409.36453 345.67805 412.48799 346.6543 416.09766 C 348.41598 422.61171 348.68801 423.28735 347.26172 423.83398 C 339.19419 426.92604 338.56121 427.40667 333.79883 434.0293 C 332.15689 436.31256 330.76292 438.3408 330.28516 439.12109 C 330.27396 439.13939 330.26195 439.15733 330.25195 439.17383 L 330.25195 439.17578 C 330.2931 439.25823 330.90879 440.49298 331.71094 441.83398 C 332.36721 442.93114 333.0374 443.95049 333.36328 444.33594 C 333.43413 444.33261 336.25898 444.2008 339.64062 443.88086 C 347.02087 443.18266 348.18316 442.75533 352.70117 439.19141 L 356.25391 436.38867 L 361.52148 441.64844 C 363.89651 444.01922 365.86404 446.03626 366.30078 446.57031 C 366.34931 446.62965 366.5525 446.5567 366.5332 447.16211 C 366.52008 447.59211 365.31988 449.11228 364.03906 450.74609 C 360.56364 455.17958 360.28195 455.94864 359.50391 463.51562 C 359.20213 466.45084 358.95136 469.82234 358.94336 469.92773 C 359.80956 470.62109 363.34424 472.74821 364.06836 473.04492 C 364.87846 472.58141 366.9842 471.16856 369.375 469.46484 C 375.5303 465.07849 376.50221 463.91495 378.45703 458.75586 C 379.07471 457.12565 379.77995 455.45975 380.37891 455.21875 C 380.65544 455.10749 380.98281 455.18277 381.23828 455.23047 C 383.50567 455.65407 393.74131 458.25498 394.24219 458.75586 C 394.49131 459.00495 394.47161 459.26532 394.47461 459.32422 C 394.49858 459.85428 394.29412 461.34235 394.01367 463.13086 C 393.16039 468.57235 393.34363 469.61293 396.55078 476.74805 L 399.08398 482.38477 L 402.27344 482.38477 L 405.45898 482.38477 L 407.97461 476.75 C 411.15549 469.6236 411.3278 468.64771 410.52734 463.20898 C 410.25787 461.37828 410.06233 459.85546 410.08203 459.33594 C 410.08422 459.27821 410.04312 459.03305 410.31445 458.76172 C 410.76945 458.30671 421.02114 455.66613 423.27539 455.21289 C 423.52898 455.16189 423.81617 455.08003 424.09766 455.17383 C 424.71736 455.38041 425.47181 457.18899 426.16602 458.98047 C 428.11992 464.02281 428.9442 465.01078 434.86133 469.25 C 437.58443 471.20094 439.74286 472.75012 440.13281 473.03125 C 440.14621 473.02645 440.15933 473.02062 440.17383 473.01562 C 440.19893 473.00634 440.22395 472.99526 440.25195 472.98438 C 440.28305 472.97228 440.31541 472.95921 440.34961 472.94531 C 441.76998 472.3689 444.83811 470.67569 445.48633 470.10547 C 445.53117 469.27953 445.38249 466.99001 445.04492 463.70703 C 444.25239 455.99915 443.84492 454.88134 440.38477 450.5957 C 439.17935 449.10269 438.02734 447.67793 438.02734 447.18945 C 438.02734 446.7298 438.2002 446.6887 438.25 446.625 C 438.69856 446.05138 440.66935 444.01781 443.04688 441.64453 L 448.32422 436.375 L 451.63867 439.0625 C 453.1427 440.28168 455.38165 441.73867 456.60156 442.30469 C 458.70523 443.28073 459.1916 443.36624 465.15039 443.89648 L 471.19922 444.43555 L 471.48633 444.05469 C 471.72423 443.73922 472.5508 442.34188 473.25781 441.02148 L 474.32812 439.02344 L 470.70703 434.01367 C 466.22122 427.80939 465.33772 427.06207 460.25195 425.01367 C 457.35157 423.8455 456.12208 423.27816 456.29492 422.14258 C 456.42912 421.26604 459.02647 411.76342 459.6582 409.77539 C 459.729 409.55261 459.79002 409.28817 459.97656 409.10156 C 460.41926 408.65941 462.1958 408.97802 463.92773 409.26562 C 465.80486 409.57739 468.00437 409.71179 469.57031 409.61719 C 471.97207 409.47219 472.42545 409.31693 478.06445 406.75781 L 483.70117 404.19922 L 483.61914 401.04883 L 483.53711 397.87109 L 477.92383 395.33203 C 470.993 392.1977 469.94466 392.00398 464.80469 392.76953 C 462.98115 393.04116 461.21233 393.24844 460.71289 393.15234 C 459.72706 392.96243 459.13259 390.79192 457.86914 386.07227 C 456.34138 380.36524 455.94772 379.08561 457.05859 378.49414 C 457.45503 378.28295 458.99736 377.64 460.63477 376.98047 C 465.36961 375.07323 466.10066 374.45681 470.39062 368.53516 C 472.46597 365.67055 474.13376 363.24557 474.22266 363.10547 C 474.21796 363.09357 474.21398 363.08311 474.20898 363.07031 C 474.20108 363.04911 474.19259 363.02555 474.18359 363.00195 C 474.12109 362.84171 474.03288 362.63955 473.91992 362.40039 C 473.63589 361.79901 473.22423 361.02029 472.74414 360.19727 C 471.85842 358.67872 471.4572 357.99861 471.17188 357.7207 C 471.09312 357.644 471.14939 357.61252 470.56445 357.69922 C 469.87338 357.80165 466.88597 358.11996 463.86133 358.41797 C 457.37796 359.05673 455.97436 359.58739 451.91211 362.86719 C 450.41415 364.07664 448.96799 365.23242 448.49414 365.23242 C 448.03347 365.23242 447.99349 365.05771 447.92969 365.00781 C 447.35568 364.55844 445.31897 362.58497 442.94141 360.20312 L 437.66797 354.92188 L 440.44531 351.4375 C 443.92024 347.08002 444.26604 346.12469 445.04883 338.28906 C 445.23121 336.46336 445.38686 334.79492 445.49023 333.57812 C 445.54196 332.96976 445.57926 332.47806 445.60156 332.13672 C 445.60356 332.10272 445.60542 332.06976 445.60742 332.03906 C 445.60755 332.03706 445.6073 332.0352 445.60742 332.0332 C 445.21659 331.79141 441.45995 329.62973 440.29297 329.01172 C 439.52013 329.53121 437.52895 330.94306 435.20703 332.62305 C 429.00142 337.11294 428.13441 338.14044 426.15039 343.21484 C 425.32421 345.32801 424.47324 347.47189 423.41406 347.09961 C 423.41422 347.09967 420.31444 346.25644 416.92383 345.36914 C 413.53205 344.48154 410.5997 343.70814 410.37109 343.53711 C 409.99894 343.25882 410.05964 342.95949 410.05664 342.90039 C 410.0332 342.36875 410.2332 340.79578 410.50977 338.88477 C 411.31952 333.28907 411.15729 332.38409 407.93945 325.28906 L 405.41406 319.72266 L 402.24219 319.65039 L 399.09961 319.58008 z M 407.35938 362.64258 A 38.686993 38.686993 0 0 1 440.65039 396.17578 L 428.90039 396.17578 A 27.060375 27.060375 0 0 0 428.89258 396.0918 L 420.37109 396.15234 L 407.35938 396.24609 L 407.35938 383.14648 C 407.35937 379.06121 407.36633 376.31492 407.4043 374.41992 A 27.060375 27.060375 0 0 0 407.35938 374.41602 L 407.35938 362.64258 z M 397.20117 362.79492 L 397.20117 374.44141 A 27.060375 27.060375 0 0 0 397.16016 374.44531 C 397.19453 376.17472 397.19986 378.87849 397.20117 382.38672 L 397.20117 387.70312 L 397.20508 387.70312 L 397.20508 396.23242 L 390.64844 396.23242 L 364.06445 396.23242 A 38.686993 38.686993 0 0 1 397.20117 362.79492 z M 402.28125 394.7207 C 409.03243 394.7207 411.12306 404.06432 404.98828 406.84961 C 403.04762 407.73064 401.52958 407.73734 399.60938 406.86523 C 395.66639 405.07443 394.61898 400.32086 397.41992 396.99219 C 398.75796 395.402 400.21267 394.7207 402.28125 394.7207 z M 364.0957 406.05273 L 375.73633 406.05273 A 27.060375 27.060375 0 0 0 375.74023 406.08984 C 377.71141 406.05464 380.2025 406.05273 384.0918 406.05273 L 390.64844 406.05273 L 397.20508 406.05273 L 397.20508 412.59766 L 397.20508 419.14258 C 397.20508 422.45992 397.17779 425.28572 397.13477 427.51367 A 27.060375 27.060375 0 0 0 397.20508 427.52148 L 397.20508 439.16992 A 38.686993 38.686993 0 0 1 364.0957 406.05273 z M 407.35938 406.05273 L 420.41797 406.05273 L 440.62109 406.05273 A 38.686993 38.686993 0 0 1 407.36328 439.32031 L 407.36328 427.54688 A 27.060375 27.060375 0 0 0 407.41211 427.54297 C 407.39 425.46849 407.36707 423.36116 407.36328 419.76562 L 407.36328 412.59766 L 407.35938 412.59766 L 407.35938 406.05273 z " />
    <path
       id="path2783-6"
       style="display:none;fill:#005da9;stroke-width:1"
       d="m 399.09961,319.58008 -2.51953,5.65234 c -3.18422,7.14129 -3.39549,8.3516 -2.56446,13.76953 0.29374,1.91612 0.55502,3.90052 0.0449,4.38282 -0.33172,0.31355 -3.20876,1.12334 -6.41797,1.97461 -3.20785,0.85088 -6.11543,1.63 -6.35742,1.70117 -1.15968,0.34125 -1.7607,-1.03884 -2.86524,-3.78711 -2.08808,-5.19547 -2.99034,-6.27395 -8.83789,-10.44727 -2.69919,-1.92637 -5.07966,-3.5821 -5.24609,-3.69726 -0.002,6.5e-4 -0.004,10e-4 -0.006,0.002 -0.0193,0.006 -0.0406,0.014 -0.0625,0.0215 -0.14994,0.051 -0.34177,0.12687 -0.57422,0.23047 -0.58574,0.26108 -1.35264,0.65851 -2.1875,1.14649 -2.16756,1.26694 -2.62305,1.76562 -2.62305,1.76562 0.004,0.21436 0.27856,3.3245 0.60938,6.64258 0.70225,7.04308 1.15777,8.2576 4.69531,12.70898 l 2.65039,3.33399 -5.24414,5.25195 c -2.36305,2.36727 -4.38845,4.33005 -4.96094,4.77735 -0.0636,0.0497 -0.10649,0.22265 -0.56445,0.22265 -0.48847,0 -1.91325,-1.152 -3.40625,-2.35742 -4.13859,-3.34145 -5.50926,-3.86387 -11.95117,-4.47266 -3.02757,-0.28611 -6.03086,-0.59817 -6.74024,-0.70507 l -0.68554,-0.10352 -1.49414,2.58789 c -0.47338,0.82023 -0.87714,1.59988 -1.1543,2.20508 -0.11018,0.24058 -0.19571,0.4436 -0.25586,0.60547 -0.009,0.0238 -0.0179,0.0469 -0.0254,0.0684 -0.006,0.0178 -0.0123,0.0348 -0.0176,0.0508 0.0966,0.17024 1.69793,2.5283 3.68164,5.30469 4.19397,5.86975 5.09341,6.61998 10.32422,8.73437 2.37433,0.95975 3.86579,1.64465 3.85547,2.62305 -0.008,0.84212 -3.16087,12.62767 -3.66992,13.13672 -0.47256,0.47267 -2.54624,0.1954 -4.60938,-0.0996 -5.52942,-0.79071 -6.32026,-0.64974 -13.29297,2.51757 l -5.60156,2.54493 -0.082,3.18945 -0.0801,3.1582 5.63477,2.54688 c 5.6175,2.53732 6.09159,2.70371 8.49804,2.85351 1.5704,0.0978 3.76186,-0.0339 5.65039,-0.34375 1.5685,-0.25732 2.86835,-0.44791 3.36329,-0.42578 0.055,0.002 0.3181,-0.008 0.56054,0.23438 0.27859,0.27859 1.10774,3.40205 2.08399,7.01172 1.76168,6.51406 2.03371,7.18969 0.60742,7.73632 -8.06754,3.09206 -8.7005,3.57269 -13.46289,10.19532 -1.64194,2.28327 -3.03591,4.3115 -3.51367,5.09179 -0.0112,0.0183 -0.0233,0.0362 -0.0332,0.0527 v 0.002 c 0.0411,0.0825 0.65684,1.31719 1.45899,2.6582 0.65627,1.09716 1.32646,2.11651 1.65234,2.50196 0.0709,-0.003 2.89569,-0.13514 6.27734,-0.45508 7.38025,-0.6982 8.54253,-1.12552 13.06055,-4.68945 l 3.55274,-2.80274 5.26757,5.25977 c 2.37503,2.37078 4.34256,4.38782 4.7793,4.92187 0.0485,0.0593 0.25174,-0.0136 0.23242,0.5918 -0.0131,0.43 -1.21332,1.95016 -2.49414,3.58398 -3.47543,4.43349 -3.75711,5.20254 -4.53515,12.76953 -0.30178,2.93522 -0.55274,6.30672 -0.56055,6.41211 0.8662,0.69336 4.40088,2.82048 5.125,3.11719 0.8101,-0.46351 2.91584,-1.87636 5.30664,-3.58008 6.15531,-4.38636 7.12721,-5.54988 9.08203,-10.70898 0.61768,-1.63021 1.32292,-3.29611 1.92188,-3.53711 0.27653,-0.11124 0.6039,-0.036 0.85937,0.0117 2.26739,0.4236 12.50303,3.02451 13.00391,3.52539 0.24934,0.24934 0.22976,0.50945 0.23242,0.56836 0.024,0.5302 -0.18048,2.02005 -0.46094,3.80859 -0.85328,5.44152 -0.67004,6.48208 2.53711,13.61719 l 2.5332,5.63477 h 3.1875 3.1875 l 2.51563,-5.63477 c 3.18088,-7.12641 3.35319,-8.10229 2.55273,-13.54102 -0.26947,-1.83071 -0.46498,-3.35352 -0.44531,-3.87304 0.002,-0.0577 -0.0389,-0.30289 0.23242,-0.57422 0.45495,-0.45496 10.70506,-3.09559 12.95899,-3.54883 0.25355,-0.051 0.5408,-0.13287 0.82226,-0.0391 0.61947,0.20649 1.37609,2.0151 2.07032,3.80664 1.95391,5.04235 2.77818,6.03031 8.69531,10.26953 2.7231,1.95094 4.88153,3.50012 5.27148,3.78125 0.0134,-0.005 0.0265,-0.0103 0.041,-0.0156 0.0251,-0.009 0.0502,-0.0204 0.0781,-0.0312 0.0311,-0.0121 0.0635,-0.0252 0.0977,-0.0391 1.42037,-0.57641 4.4885,-2.26962 5.13672,-2.83984 0.0448,-0.82594 -0.10384,-3.11546 -0.44141,-6.39844 -0.79252,-7.70785 -1.19975,-8.82345 -4.66015,-13.10937 -1.20544,-1.49303 -2.35743,-2.91973 -2.35743,-3.40821 0,-0.45965 0.17282,-0.50071 0.22266,-0.56445 0.44856,-0.57362 2.41935,-2.60719 4.79688,-4.98047 l 5.27734,-5.26953 3.31445,2.6875 c 1.50403,1.21918 3.74298,2.67617 4.96289,3.24219 2.10367,0.97604 2.59003,1.06155 8.54883,1.59179 l 6.04883,0.53907 0.28711,-0.37891 c 0.23646,-0.31356 1.0623,-1.71437 1.76953,-3.03516 l 1.07031,-2 -3.61914,-5.00781 c -4.48582,-6.20429 -5.36931,-6.9516 -10.45508,-9 -2.90039,-1.16817 -4.12987,-1.73551 -3.95703,-2.87109 0.1342,-0.87654 2.73155,-10.37916 3.36328,-12.36719 0.0708,-0.22278 0.13182,-0.48722 0.31836,-0.67383 0.4427,-0.44215 2.21923,-0.12355 3.95117,0.16406 1.87751,0.31178 4.07709,0.44806 5.64258,0.35352 2.40097,-0.14495 2.85486,-0.30209 8.49414,-2.86133 l 5.63477,-2.55859 -0.0801,-3.15039 -0.082,-3.17774 -5.61328,-2.53906 c -6.93084,-3.13433 -7.97916,-3.32805 -13.11914,-2.5625 -1.82354,0.27163 -3.59236,0.47892 -4.0918,0.38281 -0.98705,-0.19014 -1.58029,-2.35842 -2.84375,-7.07812 -1.52776,-5.70703 -1.92142,-6.98666 -0.81055,-7.57813 0.39529,-0.21058 1.93853,-0.85599 3.57618,-1.51562 4.73485,-1.90724 5.46588,-2.52365 9.75585,-8.44531 2.07535,-2.86461 3.74318,-5.28959 3.83204,-5.42969 -0.004,-0.0118 -0.009,-0.0224 -0.0137,-0.0352 -0.008,-0.0212 -0.0162,-0.0447 -0.0254,-0.0684 -0.0625,-0.16024 -0.15071,-0.3624 -0.26367,-0.60156 -0.28403,-0.60138 -0.69569,-1.38009 -1.17578,-2.20312 -0.88572,-1.51855 -1.28693,-2.19866 -1.57226,-2.47657 -0.0788,-0.0767 -0.0225,-0.10821 -0.60743,-0.0215 -0.69107,0.10243 -3.67848,0.42074 -6.70312,0.71875 -6.48337,0.63876 -7.88697,1.16942 -11.94922,4.44922 -1.49796,1.20945 -2.94412,2.36523 -3.41797,2.36523 -0.46067,0 -0.50067,-0.17468 -0.56445,-0.22461 -0.57401,-0.44937 -2.61071,-2.42284 -4.98828,-4.80469 l -5.27539,-5.28124 2.77929,-3.48438 c 3.47474,-4.35724 3.82073,-5.3128 4.60352,-13.14844 0.18238,-1.8257 0.33803,-3.49414 0.4414,-4.71094 0.0517,-0.60837 0.089,-1.10006 0.11133,-1.4414 0.002,-0.0339 0.004,-0.067 0.006,-0.0977 1.3e-4,-0.002 -1.2e-4,-0.004 0,-0.006 -0.39083,-0.24179 -4.14747,-2.40347 -5.31445,-3.02148 -0.77284,0.51949 -2.76402,1.93134 -5.08594,3.61133 -6.20537,4.48971 -7.07254,5.51915 -9.05664,10.59375 -0.82621,2.11322 -1.67504,4.25584 -2.73633,3.88281 1.6e-4,6e-5 -3.09961,-0.84317 -6.49023,-1.73047 -3.39177,-0.8876 -6.3239,-1.65887 -6.55274,-1.83008 -0.3725,-0.27856 -0.31185,-0.57958 -0.31445,-0.63867 -0.0234,-0.53179 0.17656,-2.10457 0.45313,-4.01562 0.80976,-5.5957 0.64752,-6.50068 -2.57032,-13.59571 l -2.52539,-5.5664 -3.17187,-0.0723 z m 3.18164,42.71484 a 38.686993,38.686993 0 0 1 38.6875,38.6875 38.686993,38.686993 0 0 1 -38.6875,38.6875 38.686993,38.686993 0 0 1 -38.68555,-38.6875 38.686993,38.686993 0 0 1 38.68555,-38.6875 z" />
    <path
       id="rect1074-2"
       style="font-variation-settings:normal;display:inline;vector-effect:none;fill:#ce652a;fill-opacity:1;stroke-width:1.88976;stroke-linecap:butt;stroke-linejoin:miter;stroke-miterlimit:4;stroke-dasharray:none;stroke-dashoffset:0;stroke-opacity:1;-inkscape-stroke:none;stop-color:#000000"
       d="M 222.8125 18.886719 L 217.8125 18.900391 C 216.28547 18.904834 215.78703 18.948258 214.75977 18.978516 C 213.5517 18.978546 211.68164 18.95478 211.68164 18.988281 C 211.68164 19.048481 210.25562 22.539412 208.51172 26.746094 C 205.4942 34.025008 205.2984 34.643557 204.48047 39.560547 C 203.99864 42.457061 203.63622 45.924604 203.6543 47.451172 C 203.6864 50.165896 203.6835 50.175388 202.76758 50.361328 C 201.15771 50.688158 187.43485 52.525276 187.04883 52.46875 L 186.72461 50.710938 C 186.52115 49.606616 185.42614 46.743029 183.93359 43.412109 L 181.47656 37.931641 L 176.29688 31.306641 L 171.11914 24.679688 L 170.75977 24.769531 C 170.75887 24.769304 170.72728 24.728516 170.72656 24.728516 C 170.64267 24.728516 169.63528 25.054133 169.22852 25.152344 L 165.75391 26.019531 C 162.80195 26.755346 160.39854 27.404727 160.41406 27.462891 C 160.42199 27.492626 160.07142 30.14674 159.87109 31.712891 C 159.61408 33.274016 159.45784 33.782878 159.15039 36.138672 L 158.07227 44.394531 L 158.69727 50.060547 C 159.0572 53.325651 159.61179 56.563331 160.00391 57.699219 C 160.32361 58.625326 160.46855 59.218102 160.49414 59.472656 C 160.4459 59.73766 160.2729 59.875783 159.95117 60.037109 C 158.64685 60.688856 145.36659 66.223457 145.07422 66.226562 C 145.02086 66.177059 144.59636 65.322502 144.125 64.314453 C 143.62656 63.248459 141.72672 60.620101 139.60938 58.066406 C 136.1608 53.907118 135.57608 53.370394 129.24219 48.585938 C 125.54966 45.796703 122.43645 43.540358 122.32422 43.570312 C 122.17436 43.610309 120.83206 44.479518 119.84961 45.041016 C 119.10877 45.438735 118.38432 45.819989 117.49609 46.34375 C 115.85559 47.311124 115.24266 47.723129 114.56055 48.183594 C 114.22973 48.398941 113.25186 48.93462 113.22266 48.978516 C 113.21991 48.982646 113.24445 49.158415 113.24219 49.166016 C 113.00161 49.463092 112.91521 49.724557 112.95117 50.072266 C 113.00737 50.616104 113.4973 54.396414 114.04102 58.472656 C 114.44577 61.507137 114.69092 62.992876 114.98828 64.460938 L 115.16797 65.833984 L 115.76367 67.365234 C 116.10282 68.458016 116.37094 69.39853 117.03516 71.138672 C 118.13844 74.029066 119.56105 77.155858 120.19531 78.085938 C 120.82956 79.016026 121.34038 79.916028 121.33008 80.085938 C 121.32592 80.154607 119.48644 81.585907 118.66992 82.267578 C 115.1613 85.027316 108.4612 90.221233 108.23633 90.28125 C 108.07335 90.32475 107.41181 89.688433 106.76367 88.865234 C 106.08789 88.006951 103.56491 85.934914 100.85156 84.007812 C 96.423119 80.862591 95.63681 80.450375 88.580078 77.601562 C 84.43313 75.927412 80.86336 74.507281 80.646484 74.445312 C 80.635379 74.442139 80.523539 74.546941 80.503906 74.552734 L 80.287109 74.466797 L 79.255859 75.496094 L 79.220703 75.529297 C 78.467168 76.204564 77.494418 77.135049 76.466797 78.179688 C 74.337065 80.344726 73.480635 81.268181 73.146484 81.875 C 73.097759 81.944523 72.681641 82.356779 72.681641 82.378906 C 72.681641 82.559896 74.113355 86.138849 75.863281 90.332031 C 78.842475 97.470787 79.247855 98.235244 82.224609 102.3418 C 83.973107 104.75391 86.207305 107.47786 87.189453 108.39453 L 88.798828 109.89648 C 88.767237 110.13491 86.682919 113.01987 84.140625 116.375 L 83.800781 116.82031 L 78.84375 123.29688 L 76.804688 122.02344 C 75.666564 121.31389 72.410702 119.87847 69.570312 118.83398 C 64.681325 117.03619 63.96271 116.88256 56.087891 115.94141 L 47.769531 114.94727 L 46.503906 117.12695 C 46.058901 117.8196 45.636647 118.47336 44.896484 119.78125 C 44.052239 121.27308 43.866487 121.80108 43.419922 122.73047 C 43.152679 123.264 42.443794 124.4885 42.460938 124.55273 C 42.461189 124.55368 42.4879 124.58873 42.488281 124.58984 C 42.487914 124.5994 42.41643 124.72614 42.417969 124.73242 C 42.471569 124.95124 44.758406 128.0398 47.5 131.5957 C 52.1235 137.59249 52.802547 138.31978 56.880859 141.63086 C 59.299165 143.59424 62.118896 145.61321 63.146484 146.11719 C 64.174082 146.62117 65.015625 147.18771 65.015625 147.37695 C 65.015625 147.68518 59.758189 160.81609 59.095703 162.19141 L 58.832031 162.82617 L 56.96875 162.09961 C 55.815002 161.64892 52.906966 161.16505 49.326172 160.82812 C 47.201081 160.62817 46.09503 160.60344 44.833984 160.58008 L 43.644531 160.46094 L 43.371094 160.5 C 41.634959 160.56252 39.652003 160.82182 35.726562 161.36523 C 31.426317 161.96054 27.610108 162.52651 27.244141 162.62109 C 26.966132 162.69309 26.694633 163.16205 26.361328 164.08789 C 26.343482 164.13619 26.309356 164.27204 26.291016 164.32422 C 26.01213 165.12948 25.7096 166.13141 25.261719 167.85547 C 25.094974 168.49735 25.142411 168.52348 25.003906 169.10547 C 24.447036 171.39994 23.949087 173.59262 24.023438 173.6543 C 24.110237 173.7263 27.105222 176.01471 30.677734 178.73828 C 36.834942 183.43238 37.455264 183.81597 42.601562 186.11523 C 45.600618 187.45515 48.753776 188.63744 49.646484 188.75586 C 50.264875 188.83789 50.631397 188.94888 51.013672 189.05273 C 51.190149 189.12505 51.550424 189.20116 51.611328 189.25977 C 51.698491 189.3535 51.674405 190.08385 51.613281 191.02539 C 51.356298 193.88277 49.972627 205.59529 49.832031 205.86719 C 49.792421 205.94369 48.897173 205.92301 47.84375 205.82031 C 46.610426 205.70004 43.900818 205.96141 40.234375 206.55664 L 34.541016 207.48242 L 27.195312 210.58594 C 23.155061 212.29238 19.577225 213.87533 19.246094 214.10547 C 19.224011 214.12082 19.213859 214.16345 19.193359 214.18164 L 18.689453 214.39453 L 18.691406 219.89453 L 18.693359 225.39453 L 26.605469 228.61914 C 34.367183 231.78324 34.623316 231.86064 40.177734 232.74023 C 44.286356 233.39084 46.411748 233.57914 47.927734 233.42383 C 48.894977 233.32484 49.450933 233.30884 49.685547 233.32812 C 49.953509 233.58053 50.423389 236.17864 51.146484 241.49414 C 51.1631 241.61297 51.160952 241.59488 51.177734 241.71484 C 51.803876 246.19071 52.247512 249.75682 52.210938 249.95703 L 50.015625 250.44727 C 48.53212 250.77625 45.966635 251.77853 42.673828 253.31836 C 37.808443 255.59358 37.355055 255.88433 30.974609 260.85547 L 24.337891 266.02734 L 25.757812 271.33984 L 27.179688 276.6543 L 28.775391 276.85742 C 29.848981 277.08445 31.977652 277.44728 35.683594 277.93164 L 43.849609 278.99805 L 49.615234 278.42773 C 53.409678 278.05164 56.057774 277.61214 57.357422 277.14453 C 58.44379 276.75366 59.415838 276.5174 59.517578 276.61914 C 59.733764 276.83533 64.500843 288.14999 65.433594 290.5957 C 65.502643 290.785 65.967766 291.88468 65.960938 291.89648 C 65.919718 291.96768 65.072714 292.42483 64.080078 292.91211 C 63.087462 293.39938 60.281898 295.45481 57.84375 297.47852 C 53.649686 300.95965 53.135381 301.52211 48.322266 307.90625 L 43.236328 314.65234 L 43.322266 314.79883 L 43.302734 314.82422 L 46.042969 319.52539 C 46.123174 319.66305 46.184011 319.74415 46.263672 319.87891 C 46.806526 320.82331 47.484908 321.99312 47.712891 322.40625 C 48.123603 323.15051 48.575869 323.83805 48.71875 323.93359 C 48.723188 323.93656 48.96908 323.90424 48.980469 323.90625 C 49.040605 323.96124 49.214513 324.22852 49.244141 324.22852 C 49.498149 324.22852 53.187149 323.77085 57.443359 323.21289 C 61.412899 322.69251 63.403916 322.3991 65.132812 321.98047 L 65.306641 321.95703 L 66.109375 321.65625 C 67.394535 321.29351 68.535375 320.94065 70.65625 320.14453 C 73.745034 318.98509 76.935811 317.543 77.980469 316.83398 C 78.972883 316.16045 79.84642 315.74472 80.009766 315.8457 C 80.614667 316.42829 89.986734 328.468 90.070312 328.77734 C 90.105492 328.90754 89.362265 329.70253 88.419922 330.54297 C 87.477589 331.38341 85.299572 334.07299 83.580078 336.51953 C 80.732264 340.57152 80.165768 341.66844 77.234375 348.83984 L 74.017578 356.71289 L 74.220703 356.91602 L 74.216797 356.92578 L 78.080078 360.78906 L 81.943359 364.65234 L 89.730469 361.4082 C 96.620825 358.53615 97.95717 357.84985 101.34961 355.44531 C 103.45794 353.95091 106.20611 351.70504 107.45703 350.45508 L 109.24414 348.66992 C 109.39188 348.5681 109.71777 348.18965 109.76953 348.21289 L 114.95703 352.10156 C 117.83111 354.25665 120.88611 356.57449 121.74609 357.25195 L 123.12891 358.33984 L 121.80273 360.4043 C 121.06013 361.55943 119.61553 364.79434 118.5918 367.59375 C 116.83718 372.39193 116.67224 373.16328 115.73633 381.05078 L 114.74219 389.41797 L 118.04297 391.32812 C 118.71598 391.72496 119.33219 392.09632 120.06445 392.49609 L 124.20117 394.89062 L 124.59961 394.58398 C 124.6243 394.58216 124.76882 394.65593 124.78125 394.64648 C 137.31593 385.11633 137.75517 384.73191 141.54492 379.98828 C 143.56324 377.46198 145.5708 374.60702 146.00586 373.64453 C 146.44091 372.68203 146.85258 371.89453 146.92188 371.89453 C 147.1966 371.89453 162.1992 378.02022 162.44922 378.23438 C 162.51369 378.28963 162.31615 378.82542 162.26367 379.12305 L 161.87109 380.19922 C 161.47824 381.27576 160.919 384.62088 160.61328 387.73438 C 160.33533 390.5653 160.20981 392.01507 160.29102 393.78906 L 160.26758 394.06055 L 160.54688 395.98438 C 160.69002 397.45077 160.79852 398.66894 161.19727 401.56445 C 161.82078 406.09196 162.4585 409.97212 162.61328 410.18555 C 162.62219 410.19784 162.7346 410.22868 162.75 410.24219 C 162.75256 410.2482 162.77926 410.43551 162.78125 410.4375 C 162.79714 410.45339 163.78052 410.69683 164.05469 410.7793 C 165.46024 411.25826 167.49578 411.79552 169.50195 412.24414 C 171.15424 412.67845 173.03972 413.22852 173.16406 413.22852 C 173.23056 413.22852 175.60337 410.19098 178.43555 406.47852 C 183.35644 400.028 183.68924 399.49122 185.94531 394.39453 C 187.36361 391.19045 188.39981 388.35158 188.54102 387.2832 C 188.67031 386.3051 188.95285 385.43682 189.16992 385.35352 C 189.35522 385.2824 192.79487 385.66208 196.34766 386.08984 C 200.79679 386.65148 205.3233 387.17566 205.48633 387.25391 C 205.66092 387.33781 205.7135 388.26815 205.60156 389.32227 C 205.45828 390.67116 205.70367 392.99509 206.42969 397.17188 L 207.45898 403.10742 L 210.69141 410.64062 C 212.46864 414.78357 214.00814 418.2235 214.11133 418.2832 C 214.11372 418.28459 214.26653 418.28185 214.27344 418.2832 C 214.27354 418.28331 214.27529 418.28896 214.27539 418.28906 C 214.41894 418.43266 216.94869 418.45404 219.89648 418.33789 L 221 418.29492 C 222.75361 418.28879 224.74089 418.33347 224.86328 418.30078 C 224.86459 418.30043 224.92915 418.14387 224.93164 418.14062 L 225.25586 418.12695 L 228.46484 410.26172 C 231.6007 402.5731 231.69321 402.27035 232.5332 396.89453 C 233.01638 393.80225 233.34591 390.45383 233.28711 389.24609 L 233.1875 387.23438 C 233.3927 387.10773 236.85164 386.57119 240.63672 386.04102 L 240.84961 386.01172 C 245.06626 385.41392 248.84269 384.91816 249.24219 384.91016 C 249.48512 384.90511 249.62248 385.02078 249.76172 385.16797 C 249.878 385.42005 250.03316 385.88235 250.20117 386.80078 C 250.45823 388.20769 251.31722 390.50314 252.86914 393.93945 C 255.11288 398.90756 255.25509 399.12975 260.36328 405.70312 C 263.227 409.38825 265.71299 412.48819 265.88867 412.58984 C 266.06439 412.69156 268.51388 412.05988 271.33203 411.1875 L 272.22461 410.91211 C 274.28 410.36331 276.46812 409.86863 276.56641 409.77539 C 276.59431 409.74889 277.10191 405.97785 277.69336 401.39453 L 278.76758 393.06055 L 278.18555 387.39453 C 277.79673 383.60584 277.35832 381.04432 276.85938 379.66406 L 276.16797 377.75 L 276.11914 377.59766 L 280.64648 375.6875 C 282.64309 374.84613 285.01995 373.83846 286.94531 373.02148 C 288.4867 372.38415 290.86234 371.38057 291.06445 371.32227 C 291.66135 371.14961 291.88683 371.37289 292.62305 372.87305 C 293.09649 373.83775 295.13263 376.64109 297.14648 379.09961 C 300.63667 383.3604 301.11936 383.8029 307.45508 388.59375 C 311.11083 391.35816 314.29725 393.61462 314.53711 393.60742 C 314.54144 393.60729 314.65106 393.54085 314.6582 393.53906 C 314.65918 393.53915 314.68859 393.56055 314.68945 393.56055 C 315.03987 393.56055 319.78533 390.78616 322.08398 389.32031 C 322.63404 388.98651 323.84436 388.35383 323.87695 388.30078 C 323.87734 388.30016 323.8574 388.14395 323.85742 388.14062 C 323.94605 387.93018 323.55778 384.24305 322.98047 379.82422 C 322.43798 375.6719 322.14341 373.61212 321.73242 371.87891 L 321.69336 371.58398 L 321.2207 370.3418 C 320.87709 369.20491 320.60063 368.22611 319.9082 366.39453 C 318.79925 363.46122 317.31912 360.20573 316.61914 359.16016 L 315.3457 357.25977 L 317.59766 355.47656 C 318.83615 354.49608 321.84861 352.1429 324.29297 350.24609 L 328.65234 346.86328 L 330.18359 348.55469 C 331.03867 349.49983 333.76871 351.71087 336.25 353.46875 C 340.42653 356.42765 341.33323 356.89741 348.47266 359.78125 C 352.71429 361.4946 356.33973 362.85333 356.5293 362.80273 C 356.95096 362.69019 363.87651 355.71232 364.01172 355.26367 C 364.06492 355.08724 362.70847 351.54497 360.99805 347.39258 C 357.91923 339.91809 357.85666 339.79776 354.56641 335.21094 C 352.73855 332.66281 350.46938 329.89807 349.52344 329.06836 L 347.80273 327.56055 L 349.51758 325.25781 C 350.41953 324.04726 352.58937 321.17649 354.41211 318.77734 C 355.90121 316.82694 357.72103 314.43428 357.87695 314.26367 C 358.23562 313.87122 358.5528 313.97906 359.91406 314.95703 C 360.86663 315.64137 363.77251 316.94786 367.01953 318.15039 C 372.42595 320.15268 372.63016 320.19858 379.68164 321.03906 C 383.62329 321.50888 387.3928 321.97944 388.05859 322.08398 L 389.26953 322.27344 L 391.99219 317.52148 L 394.71289 312.76758 L 393.96875 311.74805 C 393.55878 311.18694 391.22695 308.15038 388.78711 305 C 384.84588 299.91105 383.87719 298.88466 380.09961 295.79688 C 377.76107 293.88534 374.89739 291.84195 373.73633 291.25586 C 372.52189 290.6428 371.69102 290.02168 371.7793 289.79297 C 373.2435 285.99983 377.617 275.47675 377.93164 274.98047 C 378.00403 274.88524 378.11094 274.83602 378.23242 274.81055 C 378.35857 274.76979 378.85509 274.91298 379.20703 274.9707 C 379.45593 275.04836 379.58169 275.05384 379.95508 275.19531 C 381.0519 275.61086 384.19528 276.12468 387.64258 276.44922 C 389.17413 276.59341 389.869 276.57333 390.84766 276.63086 L 393.36523 276.86914 L 395.13672 276.61719 C 396.54287 276.50282 397.85818 276.37041 400.62305 275.97461 C 404.55253 275.4121 408.31415 274.89491 408.98438 274.82422 L 410.20508 274.69531 L 411.60938 269.40234 L 413.01172 264.10742 L 412.7168 263.86914 C 412.70961 263.83149 412.76187 263.60758 412.74609 263.59766 C 412.56852 263.48598 409.51853 261.17312 405.96875 258.45703 C 399.89091 253.80667 399.21361 253.38412 394.36133 251.23047 C 391.52729 249.97262 388.26479 248.76647 387.11133 248.54883 C 385.55096 248.25441 385.01758 248.01335 385.01758 247.60742 C 385.01806 247.46179 385.33029 244.98621 385.50195 243.54102 C 386.13496 238.53445 386.98135 231.89407 387.08398 231.70508 C 387.18841 231.51283 388.26363 231.40667 389.49023 231.46875 C 390.79867 231.53485 393.90834 231.20849 397.08008 230.67383 L 402.45312 229.76953 L 409.95898 226.57617 C 414.08659 224.81988 417.62359 223.33778 417.82031 223.2832 C 417.83012 223.28048 417.83245 223.14652 417.8418 223.13477 L 418.01758 223.06055 L 418.00195 222.01953 C 418.21579 219.61455 418.15289 214.07663 417.85938 212.62305 L 417.84766 211.83594 L 410.18164 208.68555 C 403.00539 205.73758 402.19581 205.48246 397.51562 204.69727 C 394.69622 204.22425 391.27269 203.86816 389.66602 203.88086 L 387.22656 203.90039 C 387.06768 203.83255 386.87659 203.78079 386.8418 203.65039 C 386.77167 203.38401 386.26706 199.83293 385.74219 195.98242 C 385.73974 195.96437 385.74073 195.9653 385.73828 195.94727 C 385.15081 191.61335 384.66984 187.81409 384.67383 187.51562 C 384.67512 187.4107 384.80928 187.35109 384.87695 187.27148 C 385.09414 187.17776 385.62242 187.03156 386.56641 186.86914 C 388.02114 186.61883 390.11587 185.82929 393.85352 184.12109 C 398.98833 181.77444 399.23797 181.61449 405.74609 176.57422 L 412.39648 171.42383 L 412.03125 170.13086 C 411.75855 168.46411 409.77631 160.87787 409.50781 160.60938 C 409.43581 160.53738 405.63483 159.99103 401.06055 159.39453 L 392.74219 158.31055 L 386.97852 158.9375 C 383.38744 159.32818 380.52915 159.82036 379.39648 160.24414 C 378.39655 160.61825 377.46599 160.80577 377.32812 160.66016 C 377.19037 160.51468 374.99958 155.30323 373.1875 151.02344 C 372.22999 148.69575 371.06331 145.87615 371.01367 145.67969 C 370.91377 145.28615 371.29772 144.98393 372.51562 144.49023 C 373.54597 144.07257 375.84481 142.43784 378.73438 140.07031 C 383.13131 136.46777 383.5247 136.0442 388.33789 129.67383 C 391.09789 126.02095 393.37191 122.85724 393.39453 122.64453 C 393.39509 122.63923 393.32193 122.51286 393.32031 122.50391 C 393.32044 122.50272 393.34766 122.46781 393.34766 122.4668 C 393.34766 122.32393 392.30254 120.47117 391.33594 118.76562 C 391.06701 118.28432 391.05932 118.23049 390.77734 117.73633 C 390.72952 117.65418 390.7379 117.65709 390.68945 117.57422 L 388.0293 113.02344 L 379.60547 114.14062 L 371.18164 115.25781 L 365.84766 117.30273 C 362.91435 118.4283 359.82027 119.8469 358.9707 120.45508 C 358.12113 121.06325 357.28479 121.56055 357.11133 121.56055 C 357.01633 121.56055 355.1235 119.19749 353.55078 117.25391 C 352.329 115.72151 351.34797 114.49849 349.3457 111.91016 C 348.37326 110.64175 346.81009 108.67256 346.73633 108.49219 C 346.70535 108.41636 347.22497 107.93263 347.50195 107.61523 L 348.48047 106.73047 C 349.50492 105.80304 351.7125 103.07956 353.38672 100.67969 C 356.11483 96.769139 356.75735 95.5181 359.57031 88.621094 C 361.29657 84.388479 362.66784 80.776203 362.61914 80.59375 C 362.61904 80.593388 362.61144 80.586312 362.61133 80.585938 L 362.68359 80.40625 L 358.9375 76.650391 C 358.6178 76.329784 358.60302 76.365965 358.29883 76.068359 L 355.04688 72.841797 L 354.85742 72.919922 C 354.85587 72.919758 354.82952 72.894531 354.82812 72.894531 C 354.62811 72.894531 351.04675 74.321637 346.86914 76.064453 C 344.26348 77.151472 343.05649 77.727132 341.68164 78.376953 L 339.34375 79.345703 L 337.07227 80.990234 C 336.31527 81.498296 335.70912 81.817442 334.66797 82.572266 C 332.1343 84.409122 329.41272 86.658614 328.62109 87.570312 L 327.34375 89.041016 C 327.18582 89.054235 324.06894 86.801273 320.9043 84.453125 C 320.61099 84.230049 320.60063 84.223373 320.31445 84.005859 C 317.2783 81.742008 314.19967 79.400273 313.98047 79.111328 C 313.88127 78.980463 314.34588 78.039088 315.01172 77.017578 C 315.67761 75.996043 317.0988 72.803176 318.16992 69.921875 C 320.03096 64.915792 320.16134 64.309638 321.13086 56.273438 L 322.14648 47.863281 L 321.92188 47.732422 C 321.92179 47.732327 321.92392 47.714906 321.92383 47.714844 C 321.79788 47.625208 321.19353 47.316643 320.96875 47.179688 L 317.55859 45.201172 C 315.03584 43.736592 312.8124 42.579277 312.61914 42.630859 C 312.61442 42.63212 312.45932 42.751935 312.45117 42.755859 C 312.43709 42.754133 312.25836 42.657604 312.25195 42.660156 C 312.03009 42.748556 308.99894 45.02129 305.51562 47.708984 C 299.72955 52.173436 298.86992 52.974489 295.56445 56.994141 C 293.47961 59.529495 291.53857 62.26756 290.98633 63.455078 L 290.0332 65.505859 L 282.95312 62.599609 C 281.17997 61.87185 280.76518 61.707648 279.40039 61.150391 C 277.37524 60.308408 274.85328 59.269472 274.65625 59.15625 C 274.40748 58.903563 274.54224 58.411995 275.07812 56.722656 C 275.49897 55.395765 276.03775 51.933181 276.30078 48.875 C 276.43399 47.326143 276.4089 46.515077 276.44727 45.505859 L 276.63086 43.394531 L 276.45117 42.177734 C 276.3316 40.53151 276.11017 38.74216 275.5957 35.111328 C 274.94963 30.551547 274.38388 26.807005 274.33594 26.789062 C 273.6552 26.534624 271.43523 26.000768 269.34766 25.517578 C 268.86684 25.406289 268.72673 25.361178 268.25195 25.255859 C 266.28289 24.753983 264.22548 24.239509 264 24.236328 C 263.9864 24.236136 263.84593 24.410485 263.82227 24.423828 C 263.81552 24.425549 263.69093 24.395881 263.6875 24.398438 C 263.65972 24.419124 263.04437 25.224532 262.93164 25.357422 C 261.9289 26.445964 260.39281 28.280866 258.40039 30.892578 C 253.5977 37.188086 253.18832 37.844306 251.00391 42.753906 C 249.61298 45.88011 248.54179 48.815616 248.31445 50.121094 C 248.05119 51.632825 247.94671 52.07284 247.5957 52.148438 L 239.82227 51.164062 C 235.26408 50.586588 231.43928 50.058767 231.32422 49.992188 C 231.20915 49.925598 231.17539 48.812562 231.24609 47.519531 C 231.33079 45.970286 231.04655 43.315334 230.41602 39.732422 L 229.45898 34.294922 L 226.13672 26.589844 L 222.8125 18.886719 z M 218.58203 79.765625 C 283.63238 79.765981 338.30257 123.90101 353.93164 183.67578 C 354.76894 186.9705 355.50811 190.27299 356.0957 193.58008 C 356.13328 193.78431 356.17036 193.98881 356.20703 194.19336 C 366.00825 250.83733 339.59415 308.35082 288.94727 337.93164 C 288.42881 338.23961 287.92073 338.56507 287.39844 338.86523 C 286.8484 339.18134 286.59633 339.28559 286.08398 339.57422 C 282.50107 341.62899 278.80655 343.46419 275.0625 345.19336 C 268.87545 347.9065 262.47523 350.27179 255.80664 352.10156 C 255.2263 352.26542 254.6504 352.45014 254.06836 352.60547 C 253.45541 352.76905 253.18664 352.80443 252.61719 352.95117 C 241.51005 355.90448 230.07869 357.48542 218.58203 357.6582 C 155.89679 357.65873 102.84919 316.67555 85.087891 260.20703 C 84.970709 259.83039 84.866152 259.44667 84.751953 259.06836 C 84.231017 257.36073 83.733189 255.64295 83.277344 253.9082 C 82.980562 252.7693 82.723691 251.62982 82.457031 250.49023 C 82.208234 249.43421 81.945102 248.38351 81.720703 247.31836 C 81.394089 245.76022 81.120911 244.20227 80.849609 242.64453 C 80.725671 241.93564 80.581831 241.23402 80.46875 240.52148 C 80.197045 238.80422 79.982935 237.08785 79.777344 235.37305 C 79.707205 234.79029 79.617542 234.21386 79.554688 233.62891 C 79.354896 231.76187 79.210591 229.89884 79.087891 228.03711 C 79.05939 227.6102 79.014846 227.18772 78.990234 226.75977 C 78.86876 224.61243 78.801906 222.47099 78.78125 220.33398 C 78.779868 220.21443 78.772563 220.09619 78.771484 219.97656 C 78.334238 158.08688 119.8104 101.20333 182.75391 84.404297 C 184.71677 83.880422 186.68009 83.426327 188.64453 82.990234 C 189.10885 82.889577 189.56522 82.767936 190.03125 82.671875 C 190.63877 82.543349 191.24602 82.450314 191.85352 82.330078 C 200.50799 80.665213 209.43796 79.765549 218.58203 79.765625 z " />
    <ellipse
       style="display:inline;fill:#005eaa;fill-opacity:1;stroke-width:1.88976"
       id="path814"
       cx="218.58163"
       cy="218.71158"
       rx="19.679972"
       ry="19.554026" />
  </g>
</svg>
